<svg width="87" height="79" viewBox="0 0 87 79" fill="none" xmlns="http://www.w3.org/2000/svg">
    <mask id="mask0_1_89" style="mask-type:luminance" maskUnits="userSpaceOnUse" x="0" y="12" width="28" height="54">
        <path d="M16.23 31.5495C10.88 31.5495 6.55 27.2195 6.55 21.8695C6.55 16.5195 10.88 12.1895 16.23 12.1895C21.58 12.1895 25.91 16.5195 25.91 21.8695C25.91 27.2195 21.58 31.5495 16.23 31.5495ZM0 54.1895C0 63.1495 7.27 65.5295 16.23 65.5295C17.49 65.5295 18.7 65.4795 19.88 65.3695C19.73 64.3895 19.65 63.3595 19.65 62.2495C19.65 55.1195 22.79 46.6195 27.75 40.3195C24.81 36.1295 20.74 33.0695 16.23 33.0695C7.27 33.0695 0 45.2195 0 54.1895Z" fill="white"/>
    </mask>
    <g mask="url(#mask0_1_89)">
        <path d="M16.23 12.1895C10.88 12.1895 6.55 16.5195 6.55 21.8695C6.55 27.2195 10.88 31.5495 16.23 31.5495C21.58 31.5495 25.91 27.2195 25.91 21.8695C25.91 16.5195 21.58 12.1895 16.23 12.1895ZM16.23 33.0695C7.27 33.0695 0 45.2195 0 54.1895C0 63.1595 7.27 65.5295 16.23 65.5295C25.19 65.5295 32.46 63.1495 32.46 54.1895C32.46 45.2295 25.19 33.0695 16.23 33.0695Z" fill="url(#paint0_linear_1_89)"/>
    </g>
    <mask id="mask1_1_89" style="mask-type:luminance" maskUnits="userSpaceOnUse" x="59" y="12" width="28" height="54">
        <path d="M61.04 21.8695C61.04 16.5195 65.37 12.1895 70.72 12.1895C76.07 12.1895 80.4 16.5195 80.4 21.8695C80.4 27.2195 76.07 31.5495 70.72 31.5495C65.37 31.5495 61.04 27.2195 61.04 21.8695ZM70.72 33.0695C66.22 33.0695 62.15 36.1395 59.2 40.3195C64.16 46.6195 67.3 55.1195 67.3 62.2495C67.3 63.3595 67.22 64.3995 67.07 65.3695C68.24 65.4795 69.46 65.5295 70.72 65.5295C79.68 65.5295 86.95 63.1495 86.95 54.1895C86.95 45.2295 79.68 33.0695 70.72 33.0695Z" fill="white"/>
    </mask>
    <g mask="url(#mask1_1_89)">
        <path d="M61.04 21.8695C61.04 27.2195 65.37 31.5495 70.72 31.5495C76.07 31.5495 80.4 27.2195 80.4 21.8695C80.4 16.5195 76.07 12.1895 70.72 12.1895C65.37 12.1895 61.04 16.5195 61.04 21.8695ZM54.49 54.1895C54.49 63.1495 61.76 65.5295 70.72 65.5295C79.68 65.5295 86.95 63.1495 86.95 54.1895C86.95 45.2295 79.68 33.0695 70.72 33.0695C61.76 33.0695 54.49 45.2195 54.49 54.1895Z" fill="url(#paint1_linear_1_89)"/>
    </g>
    <mask id="mask2_1_89" style="mask-type:luminance" maskUnits="userSpaceOnUse" x="19" y="0" width="49" height="79">
        <path d="M57.69 14.21C57.69 22.06 51.33 28.42 43.48 28.42C35.63 28.42 29.27 22.06 29.27 14.21C29.27 6.35999 35.63 0 43.48 0C51.33 0 57.69 6.35999 57.69 14.21ZM19.65 62.26C19.65 75.42 30.32 78.91 43.48 78.91C56.64 78.91 67.31 75.42 67.31 62.26C67.31 49.1 56.64 31.25 43.48 31.25C30.32 31.25 19.65 49.1 19.65 62.26Z" fill="white"/>
    </mask>
    <g mask="url(#mask2_1_89)">
        <g style="mix-blend-mode:screen" opacity="0.7">
            <path d="M57.69 14.21C57.69 22.06 51.33 28.42 43.48 28.42C35.63 28.42 29.27 22.06 29.27 14.21C29.27 6.35999 35.63 0 43.48 0C51.33 0 57.69 6.35999 57.69 14.21ZM43.48 31.25C30.32 31.25 19.65 49.1 19.65 62.26C19.65 75.42 30.32 78.91 43.48 78.91C56.64 78.91 67.31 75.42 67.31 62.26C67.31 49.1 56.64 31.25 43.48 31.25Z" fill="#9256FC"/>
            <g style="mix-blend-mode:screen" opacity="0.8">
                <path d="M57.69 14.21C57.69 22.06 51.33 28.42 43.48 28.42C35.63 28.42 29.27 22.06 29.27 14.21C29.27 6.35999 35.63 0 43.48 0C51.33 0 57.69 6.35999 57.69 14.21ZM43.48 31.25C30.32 31.25 19.65 49.1 19.65 62.26C19.65 75.42 30.32 78.91 43.48 78.91C56.64 78.91 67.31 75.42 67.31 62.26C67.31 49.1 56.64 31.25 43.48 31.25Z" fill="white"/>
            </g>
        </g>
        <path style="mix-blend-mode:overlay" opacity="0.5" d="M43.48 28.42C51.33 28.42 57.69 22.06 57.69 14.21C57.69 6.35999 51.33 0 43.48 0C35.63 0 29.27 6.35999 29.27 14.21C29.27 22.06 35.63 28.42 43.48 28.42ZM43.48 0.399994C51.09 0.399994 57.29 6.59999 57.29 14.21C57.29 21.82 51.09 28.02 43.48 28.02C35.87 28.02 29.67 21.82 29.67 14.21C29.67 6.59999 35.87 0.399994 43.48 0.399994ZM43.48 31.25C30.32 31.25 19.65 49.09 19.65 62.26C19.65 75.43 30.32 78.91 43.48 78.91C56.64 78.91 67.31 75.42 67.31 62.26C67.31 49.1 56.64 31.25 43.48 31.25ZM43.48 78.51C27.49 78.51 20.05 73.35 20.05 62.26C20.05 48.77 31.08 31.65 43.48 31.65C55.88 31.65 66.91 48.76 66.91 62.26C66.91 73.35 59.47 78.51 43.48 78.51Z" fill="url(#paint2_linear_1_89)"/>
    </g>
    <path d="M47.8002 52.9197L44.0402 40.9097L46.2902 38.1797C46.3802 38.0697 46.4202 37.9197 46.4002 37.7697C46.3702 37.6197 46.2802 37.4997 46.1602 37.4297C46.1102 37.3997 44.8502 36.6897 43.5102 36.6797C43.4902 36.6797 43.4802 36.6797 43.4602 36.6797C42.1202 36.6897 40.8602 37.3997 40.8102 37.4297C40.6802 37.4997 40.5902 37.6297 40.5702 37.7697C40.5402 37.9097 40.5802 38.0597 40.6802 38.1797L42.9302 40.9097L39.1702 52.9197C39.1202 53.0697 39.1502 53.2397 39.2502 53.3697L43.1002 58.4897C43.1902 58.6197 43.3402 58.6897 43.5002 58.6897C43.6602 58.6897 43.8102 58.6197 43.9002 58.4897L47.7502 53.3697C47.8502 53.2397 47.8802 53.0697 47.8302 52.9197H47.8002Z" fill="white"/>
    <defs>
        <linearGradient id="paint0_linear_1_89" x1="37.97" y1="71.5695" x2="5.71" y2="28.8095" gradientUnits="userSpaceOnUse">
            <stop offset="0.16" stop-color="#1575FB"/>
            <stop offset="1" stop-color="#44C6FE"/>
        </linearGradient>
        <linearGradient id="paint1_linear_1_89" x1="50.3" y1="64.7995" x2="84.51" y2="26.7095" gradientUnits="userSpaceOnUse">
            <stop offset="0.16" stop-color="#1575FB"/>
            <stop offset="1" stop-color="#44C6FE"/>
        </linearGradient>
        <linearGradient id="paint2_linear_1_89" x1="18.74" y1="68.33" x2="68.22" y2="18.85" gradientUnits="userSpaceOnUse">
            <stop stop-color="white" stop-opacity="0.9"/>
            <stop offset="0.34" stop-color="white" stop-opacity="0"/>
            <stop offset="0.86" stop-color="white" stop-opacity="0.9"/>
        </linearGradient>
    </defs>
</svg>
