<svg width="93" height="82" viewBox="0 0 93 82" fill="none" xmlns="http://www.w3.org/2000/svg">
    <mask id="mask0_1_113" style="mask-type:luminance" maskUnits="userSpaceOnUse" x="36" y="0" width="57" height="56">
        <path d="M64.49 0C49.09 0 36.61 12.48 36.61 27.88C36.61 28.39 36.63 28.9 36.65 29.41H42.74C48.17 29.41 52.58 33.81 52.58 39.25V53.1C56.19 54.81 60.23 55.77 64.49 55.77C79.89 55.77 92.37 43.29 92.37 27.89C92.37 12.49 79.89 0.0100098 64.49 0.0100098V0Z" fill="white"/>
    </mask>
    <g mask="url(#mask0_1_113)">
        <path d="M92.0088 32.3959C94.4971 17.2006 84.1961 2.86521 69.0008 0.376882C53.8055 -2.11144 39.47 8.18959 36.9817 23.3849C34.4934 38.5802 44.7944 52.9156 59.9897 55.404C75.185 57.8923 89.5205 47.5912 92.0088 32.3959Z" fill="url(#paint0_linear_1_113)"/>
        <path d="M71.3399 36.3295C70.6599 36.3295 69.9699 36.1095 69.3899 35.6695L62.5499 30.4295C61.7599 29.8195 61.2899 28.8795 61.2899 27.8795V13.9795C61.2899 12.2095 62.7299 10.7695 64.4999 10.7695C66.2699 10.7695 67.7099 12.2095 67.7099 13.9795V26.2995L73.2999 30.5795C74.7099 31.6595 74.9699 33.6695 73.8999 35.0695C73.2699 35.8895 72.3199 36.3295 71.3499 36.3295H71.3399Z" fill="#FFD29F"/>
    </g>
    <mask id="mask1_1_113" style="mask-type:luminance" maskUnits="userSpaceOnUse" x="0" y="29" width="53" height="53">
        <path d="M9.84 29.41H42.75C48.18 29.41 52.59 33.82 52.59 39.25V72.16C52.59 77.59 48.18 82 42.75 82H9.84C4.41 82 0 77.59 0 72.16V39.25C0 33.82 4.41 29.41 9.84 29.41Z" fill="white"/>
    </mask>
    <g mask="url(#mask1_1_113)">
        <g style="mix-blend-mode:screen" opacity="0.7">
            <path d="M9.84 29.41H42.75C48.18 29.41 52.59 33.82 52.59 39.25V72.16C52.59 77.59 48.18 82 42.75 82H9.84C4.41 82 0 77.59 0 72.16V39.25C0 33.82 4.41 29.41 9.84 29.41Z" fill="#9256FC"/>
            <g style="mix-blend-mode:screen" opacity="0.8">
                <path d="M9.84 29.41H42.75C48.18 29.41 52.59 33.82 52.59 39.25V72.16C52.59 77.59 48.18 82 42.75 82H9.84C4.41 82 0 77.59 0 72.16V39.25C0 33.82 4.41 29.41 9.84 29.41Z" fill="white"/>
            </g>
        </g>
        <g style="mix-blend-mode:overlay" opacity="0.5">
            <path d="M42.75 29.41H9.84C4.41 29.41 0 33.81 0 39.25V72.16C0 77.59 4.4 82 9.84 82H42.75C48.18 82 52.59 77.6 52.59 72.16V39.25C52.59 33.82 48.19 29.41 42.75 29.41ZM52.16 72.15C52.16 77.34 47.94 81.56 42.75 81.56H9.84C4.65 81.56 0.429993 77.34 0.429993 72.15V39.24C0.429993 34.05 4.65 29.83 9.84 29.83H42.75C47.94 29.83 52.16 34.05 52.16 39.24V72.15Z" fill="url(#paint1_linear_1_113)"/>
            <g style="mix-blend-mode:screen" opacity="0.8">
                <path d="M42.75 29.41H9.84C4.41 29.41 0 33.81 0 39.25V72.16C0 77.59 4.4 82 9.84 82H42.75C48.18 82 52.59 77.6 52.59 72.16V39.25C52.59 33.82 48.19 29.41 42.75 29.41ZM52.16 72.15C52.16 77.34 47.94 81.56 42.75 81.56H9.84C4.65 81.56 0.429993 77.34 0.429993 72.15V39.24C0.429993 34.05 4.65 29.83 9.84 29.83H42.75C47.94 29.83 52.16 34.05 52.16 39.24V72.15Z" fill="white"/>
            </g>
        </g>
        <path d="M12.83 61.2993H10.16C7.81003 61.2993 5.90002 59.3893 5.90002 57.0393V54.3693C5.90002 52.0193 7.81003 50.1093 10.16 50.1093H12.83C15.18 50.1093 17.09 52.0193 17.09 54.3693V57.0393C17.09 59.3893 15.18 61.2993 12.83 61.2993ZM31.89 57.0393V54.3693C31.89 52.0193 29.98 50.1093 27.63 50.1093H24.96C22.61 50.1093 20.7 52.0193 20.7 54.3693V57.0393C20.7 59.3893 22.61 61.2993 24.96 61.2993H27.63C29.98 61.2993 31.89 59.3893 31.89 57.0393ZM46.69 57.0393V54.3693C46.69 52.0193 44.78 50.1093 42.43 50.1093H39.76C37.41 50.1093 35.5 52.0193 35.5 54.3693V57.0393C35.5 59.3893 37.41 61.2993 39.76 61.2993H42.43C44.78 61.2993 46.69 59.3893 46.69 57.0393ZM31.89 71.8393V69.1693C31.89 66.8193 29.98 64.9093 27.63 64.9093H24.96C22.61 64.9093 20.7 66.8193 20.7 69.1693V71.8393C20.7 74.1893 22.61 76.0993 24.96 76.0993H27.63C29.98 76.0993 31.89 74.1893 31.89 71.8393ZM46.69 71.8393V69.1693C46.69 66.8193 44.78 64.9093 42.43 64.9093H39.76C37.41 64.9093 35.5 66.8193 35.5 69.1693V71.8393C35.5 74.1893 37.41 76.0993 39.76 76.0993H42.43C44.78 76.0993 46.69 74.1893 46.69 71.8393ZM10.16 76.0993H12.83C15.18 76.0993 17.09 74.1893 17.09 71.8393V69.1693C17.09 66.8193 15.18 64.9093 12.83 64.9093H10.16C7.81003 64.9093 5.90002 66.8193 5.90002 69.1693V71.8393C5.90002 74.1893 7.81003 76.0993 10.16 76.0993Z" fill="#FCFBFF"/>
    </g>
    <defs>
        <linearGradient id="paint0_linear_1_113" x1="23.4661" y1="68.9151" x2="88.6261" y2="3.75506" gradientUnits="userSpaceOnUse">
            <stop offset="0.12" stop-color="#FF6D54"/>
            <stop offset="1" stop-color="#FFA844"/>
        </linearGradient>
        <linearGradient id="paint1_linear_1_113" x1="5.29" y1="82.04" x2="47.73" y2="28.81" gradientUnits="userSpaceOnUse">
            <stop stop-color="white" stop-opacity="0.9"/>
            <stop offset="0.34" stop-color="white" stop-opacity="0"/>
            <stop offset="0.86" stop-color="white" stop-opacity="0.9"/>
        </linearGradient>
    </defs>
</svg>
