<svg width="15" height="15" viewBox="0 0 15 15" fill="currentColor" xmlns="http://www.w3.org/2000/svg">
    <path d="M4.46582 6.05469C4.44755 6.33109 4.45617 6.60881 4.49219 6.88379L1.89941 9.47852C0.899163 10.4788 0.899163 12.1003 1.89941 13.1006C2.89966 14.1008 4.52123 14.1008 5.52148 13.1006L8.11523 10.5068C8.39027 10.5429 8.66787 10.5514 8.94434 10.5332C8.8433 10.6741 8.73109 10.8099 8.60449 10.9365L5.98047 13.5596C4.72675 14.8133 2.69415 14.8133 1.44043 13.5596C0.186713 12.3059 0.186713 10.2732 1.44043 9.01953L4.06348 6.39551C4.19003 6.26896 4.325 6.15569 4.46582 6.05469ZM9.54004 8.73926C9.53465 8.97668 9.50209 9.21259 9.44434 9.44434C9.21259 9.50209 8.97668 9.53465 8.73926 9.54004C8.81635 9.32745 8.86578 9.10753 8.88477 8.88477C9.10753 8.86578 9.32745 8.81635 9.54004 8.73926ZM6.22559 7.10938C6.34557 7.48808 6.55418 7.8452 6.85449 8.14551C7.15449 8.44551 7.51137 8.65339 7.88965 8.77344C7.87483 8.98942 7.81615 9.20248 7.71191 9.39844C7.23061 9.24903 6.77662 8.9856 6.39551 8.60449C6.01409 8.22308 5.74993 7.76885 5.60059 7.28711C5.79637 7.1829 6.00978 7.12431 6.22559 7.10938ZM9.01953 1.44043C10.2732 0.186713 12.3059 0.186713 13.5596 1.44043C14.8133 2.69415 14.8133 4.72675 13.5596 5.98047L10.9365 8.60449C10.8099 8.73109 10.6741 8.8433 10.5332 8.94434C10.5514 8.66787 10.5429 8.39027 10.5068 8.11523L13.1006 5.52148C14.1008 4.52123 14.1008 2.89966 13.1006 1.89941C12.1003 0.899163 10.4788 0.899163 9.47852 1.89941L6.88379 4.49219C6.60881 4.45617 6.33109 4.44755 6.05469 4.46582C6.15569 4.325 6.26896 4.19003 6.39551 4.06348L9.01953 1.44043ZM7.28711 5.60059C7.76885 5.74993 8.22308 6.01409 8.60449 6.39551C8.9856 6.77662 9.24903 7.23061 9.39844 7.71191C9.20248 7.81615 8.98942 7.87483 8.77344 7.88965C8.65339 7.51137 8.44551 7.15449 8.14551 6.85449C7.8452 6.55418 7.48808 6.34557 7.10938 6.22559C7.12431 6.00978 7.1829 5.79637 7.28711 5.60059ZM6.25977 5.45898C6.18266 5.67146 6.13331 5.8916 6.11426 6.11426C5.8916 6.13331 5.67146 6.18266 5.45898 6.25977C5.46444 6.02243 5.4969 5.78635 5.55469 5.55469C5.78635 5.4969 6.02243 5.46444 6.25977 5.45898Z" stroke="#5180F7"/>
</svg>
