<svg width="81" height="81" viewBox="0 0 81 81" fill="none" xmlns="http://www.w3.org/2000/svg">
    <mask id="mask0_1_137" style="mask-type:luminance" maskUnits="userSpaceOnUse" x="0" y="13" width="68" height="68">
        <path d="M46.135 39.4326C43.355 39.4326 41.095 37.1726 41.095 34.3926V14.3026C30.205 11.7926 18.305 14.7826 9.825 23.2626C-3.275 36.3626 -3.275 57.6026 9.825 70.7026C22.925 83.8026 44.165 83.8026 57.265 70.7026C65.745 62.2126 68.735 50.3226 66.225 39.4326H46.135Z" fill="white"/>
    </mask>
    <g mask="url(#mask0_1_137)">
        <path d="M33.545 80.5316C52.0742 80.5316 67.095 65.5108 67.095 46.9816C67.095 28.4525 52.0742 13.4316 33.545 13.4316C15.0158 13.4316 -0.00500488 28.4525 -0.00500488 46.9816C-0.00500488 65.5108 15.0158 80.5316 33.545 80.5316Z" fill="url(#paint0_linear_1_137)"/>
    </g>
    <path d="M32.955 21.4334C32.685 21.1634 32.325 21.0234 31.945 21.0234C31.935 21.0234 31.925 21.0234 31.915 21.0234C25.835 21.1534 20.055 23.5434 15.665 27.7534C15.385 28.0234 15.225 28.3834 15.215 28.7834C15.215 29.1734 15.365 29.5535 15.645 29.8335L30.925 45.1134C31.205 45.3934 31.575 45.5434 31.945 45.5434C32.135 45.5434 32.315 45.5034 32.495 45.4334C33.035 45.2134 33.385 44.6834 33.385 44.0934V22.4834C33.385 22.0934 33.225 21.7135 32.945 21.4435L32.955 21.4334Z" fill="#B5ECFF"/>
    <mask id="mask1_1_137" style="mask-type:luminance" maskUnits="userSpaceOnUse" x="41" y="0" width="40" height="40">
        <path d="M41.095 3.21339V34.3834C41.095 37.1734 43.355 39.4234 46.135 39.4234H77.305C79.205 39.4234 80.665 37.7834 80.495 35.8934C78.815 16.8634 63.645 1.69339 44.615 0.0133914C42.725 -0.156609 41.085 1.31339 41.085 3.20339L41.095 3.21339Z" fill="white"/>
    </mask>
    <g mask="url(#mask1_1_137)">
        <g style="mix-blend-mode:screen" opacity="0.7">
            <path d="M41.095 3.21339V34.3834C41.095 37.1734 43.355 39.4234 46.135 39.4234H77.305C79.205 39.4234 80.665 37.7834 80.495 35.8934C78.815 16.8634 63.645 1.69339 44.615 0.0133914C42.725 -0.156609 41.085 1.31339 41.085 3.20339L41.095 3.21339Z" fill="#9256FC"/>
            <g style="mix-blend-mode:screen" opacity="0.8">
                <path d="M41.095 3.21339V34.3834C41.095 37.1734 43.355 39.4234 46.135 39.4234H77.305C79.205 39.4234 80.665 37.7834 80.495 35.8934C78.815 16.8634 63.645 1.69339 44.615 0.0133914C42.725 -0.156609 41.085 1.31339 41.085 3.20339L41.095 3.21339Z" fill="white"/>
            </g>
        </g>
        <g style="mix-blend-mode:overlay" opacity="0.5">
            <path d="M44.625 0.0133914C42.735 -0.156609 41.095 1.31339 41.095 3.20339V34.3734C41.095 37.1634 43.355 39.4134 46.135 39.4134H77.305C79.205 39.4134 80.665 37.7734 80.495 35.8834C78.815 16.8534 63.645 1.6834 44.615 0.0033969L44.625 0.0133914ZM79.345 38.1034C78.815 38.6834 78.085 39.0034 77.305 39.0034H46.135C43.595 39.0034 41.525 36.9334 41.525 34.3834V3.21339C41.525 1.68339 42.785 0.43339 44.335 0.43339C44.415 0.43339 44.505 0.433399 44.595 0.443399C63.485 2.1134 78.415 17.0434 80.085 35.9334C80.155 36.7234 79.885 37.5134 79.355 38.1034H79.345Z" fill="url(#paint1_linear_1_137)"/>
            <g style="mix-blend-mode:screen" opacity="0.8">
                <path d="M44.625 0.0133914C42.735 -0.156609 41.095 1.31339 41.095 3.20339V34.3734C41.095 37.1634 43.355 39.4134 46.135 39.4134H77.305C79.205 39.4134 80.665 37.7734 80.495 35.8834C78.815 16.8534 63.645 1.6834 44.615 0.0033969L44.625 0.0133914ZM79.345 38.1034C78.815 38.6834 78.085 39.0034 77.305 39.0034H46.135C43.595 39.0034 41.525 36.9334 41.525 34.3834V3.21339C41.525 1.68339 42.785 0.43339 44.335 0.43339C44.415 0.43339 44.505 0.433399 44.595 0.443399C63.485 2.1134 78.415 17.0434 80.085 35.9334C80.155 36.7234 79.885 37.5134 79.355 38.1034H79.345Z" fill="white"/>
            </g>
        </g>
    </g>
    <defs>
        <linearGradient id="paint0_linear_1_137" x1="60.615" y1="10.2816" x2="17.885" y2="68.2016" gradientUnits="userSpaceOnUse">
            <stop stop-color="#1575FB"/>
            <stop offset="1" stop-color="#44C6FE"/>
        </linearGradient>
        <linearGradient id="paint1_linear_1_137" x1="44.285" y1="36.2434" x2="72.165" y2="8.3634" gradientUnits="userSpaceOnUse">
            <stop stop-color="white" stop-opacity="0.9"/>
            <stop offset="0.34" stop-color="white" stop-opacity="0"/>
            <stop offset="0.86" stop-color="white" stop-opacity="0.9"/>
        </linearGradient>
    </defs>
</svg>
