<svg width="11" height="11" viewBox="0 0 11 11" fill="none" xmlns="http://www.w3.org/2000/svg">
    <path d="M10.1605 8.82175L7.04057 5.49988L10.1605 2.17801C10.382 1.94108 10.382 1.55655 10.1605 1.32059L9.08648 0.177697C8.86402 -0.0592325 8.50298 -0.0592325 8.28143 0.177697L5.1615 3.49957L2.0434 0.177697C1.82094 -0.0592325 1.46081 -0.0592325 1.23835 0.177697L0.166162 1.32059C-0.0553873 1.55752 -0.0553873 1.94108 0.166162 2.17801L3.28517 5.49988L0.166162 8.82175C-0.0553873 9.05868 -0.0553873 9.44224 0.166162 9.67917L1.23926 10.823C1.46172 11.059 1.82185 11.059 2.04432 10.823L5.16242 7.50019L8.28234 10.823C8.50389 11.059 8.86493 11.059 9.08739 10.823L10.1614 9.67917C10.383 9.44224 10.383 9.05868 10.1605 8.82175Z" fill="white"/>
</svg>
