<svg width="85" height="68" viewBox="0 0 85 68" fill="none" xmlns="http://www.w3.org/2000/svg">
    <mask id="mask0_1_160" style="mask-type:luminance" maskUnits="userSpaceOnUse" x="0" y="0" width="64" height="68">
        <path d="M44.64 33.75C44.64 23.59 52.88 15.34 63.05 15.34V10.58C63.05 4.74 58.31 0 52.47 0H10.58C4.74 0 0 4.74 0 10.58V56.91C0 62.75 4.74 67.49 10.58 67.49H52.47C58.31 67.49 63.05 62.75 63.05 56.91V52.15C52.89 52.15 44.64 43.91 44.64 33.74V33.75Z" fill="white"/>
    </mask>
    <g mask="url(#mask0_1_160)">
        <path d="M52.47 0.0100098H10.59C4.74682 0.0100098 0.00999451 4.74684 0.00999451 10.59V56.92C0.00999451 62.7632 4.74682 67.5 10.59 67.5H52.47C58.3132 67.5 63.05 62.7632 63.05 56.92V10.59C63.05 4.74684 58.3132 0.0100098 52.47 0.0100098Z" fill="url(#paint0_linear_1_160)"/>
        <path d="M30.6803 21.0604H17.9903C15.9503 21.0604 14.2903 19.4004 14.2903 17.3604C14.2903 15.3204 15.9503 13.6604 17.9903 13.6604H30.6803C32.7203 13.6604 34.3803 15.3204 34.3803 17.3604C34.3803 19.4004 32.7203 21.0604 30.6803 21.0604Z" fill="#B5ECFF"/>
        <path d="M46.0201 36.3905H18.5201C16.4801 36.3905 14.8201 34.7305 14.8201 32.6905C14.8201 30.6505 16.4801 28.9905 18.5201 28.9905H46.0201C48.0601 28.9905 49.7201 30.6505 49.7201 32.6905C49.7201 34.7305 48.0601 36.3905 46.0201 36.3905Z" fill="#B5ECFF"/>
        <path d="M31.74 51.7303H19.05C17.01 51.7303 15.35 50.0703 15.35 48.0303C15.35 45.9903 17.01 44.3303 19.05 44.3303H31.74C33.78 44.3303 35.44 45.9903 35.44 48.0303C35.44 50.0703 33.78 51.7303 31.74 51.7303Z" fill="#B5ECFF"/>
    </g>
    <mask id="mask1_1_160" style="mask-type:luminance" maskUnits="userSpaceOnUse" x="44" y="15" width="38" height="38">
        <path d="M81.0603 37.5761C83.169 27.6296 76.8153 17.8569 66.8688 15.7482C56.9223 13.6394 47.1496 19.9932 45.0409 29.9396C42.9321 39.8861 49.2859 49.6588 59.2323 51.7676C69.1788 53.8763 78.9515 47.5226 81.0603 37.5761Z" fill="white"/>
    </mask>
    <g mask="url(#mask1_1_160)">
        <g style="mix-blend-mode:screen" opacity="0.7">
            <path d="M81.0603 37.5761C83.169 27.6296 76.8153 17.8569 66.8688 15.7482C56.9223 13.6394 47.1496 19.9932 45.0409 29.9396C42.9321 39.8861 49.2859 49.6588 59.2323 51.7676C69.1788 53.8763 78.9515 47.5226 81.0603 37.5761Z" fill="#9256FC"/>
            <g style="mix-blend-mode:screen" opacity="0.8">
                <path d="M81.0603 37.5761C83.169 27.6296 76.8153 17.8569 66.8688 15.7482C56.9223 13.6394 47.1496 19.9932 45.0409 29.9396C42.9321 39.8861 49.2859 49.6588 59.2323 51.7676C69.1788 53.8763 78.9515 47.5226 81.0603 37.5761Z" fill="white"/>
            </g>
        </g>
        <g style="mix-blend-mode:overlay" opacity="0.5">
            <path d="M63.05 15.3501C52.89 15.3501 44.64 23.5901 44.64 33.7601C44.64 43.9301 52.88 52.1701 63.05 52.1701C73.22 52.1701 81.46 43.9301 81.46 33.7601C81.46 23.5901 73.22 15.3501 63.05 15.3501ZM63.05 51.7401C53.13 51.7401 45.07 43.6701 45.07 33.7601C45.07 23.8501 53.14 15.7801 63.05 15.7801C72.96 15.7801 81.03 23.8501 81.03 33.7601C81.03 43.6701 72.96 51.7401 63.05 51.7401Z" fill="url(#paint1_linear_1_160)"/>
            <g style="mix-blend-mode:screen" opacity="0.8">
                <path d="M63.05 15.3501C52.89 15.3501 44.64 23.5901 44.64 33.7601C44.64 43.9301 52.88 52.1701 63.05 52.1701C73.22 52.1701 81.46 43.9301 81.46 33.7601C81.46 23.5901 73.22 15.3501 63.05 15.3501ZM63.05 51.7401C53.13 51.7401 45.07 43.6701 45.07 33.7601C45.07 23.8501 53.14 15.7801 63.05 15.7801C72.96 15.7801 81.03 23.8501 81.03 33.7601C81.03 43.6701 72.96 51.7401 63.05 51.7401Z" fill="white"/>
            </g>
        </g>
    </g>
    <path d="M62.08 41.1694C61.37 41.1694 60.69 40.8895 60.19 40.3895L54.26 34.4594C53.22 33.4194 53.22 31.7194 54.26 30.6794C55.3 29.6394 57 29.6394 58.04 30.6794L62.08 34.7195L70.08 26.7195C71.12 25.6795 72.82 25.6795 73.86 26.7195C74.9 27.7595 74.9 29.4595 73.86 30.4995L63.97 40.3895C63.47 40.8895 62.79 41.1694 62.08 41.1694Z" fill="white"/>
    <defs>
        <linearGradient id="paint0_linear_1_160" x1="81.08" y1="83.3" x2="4.34" y2="6.56001" gradientUnits="userSpaceOnUse">
            <stop offset="0.16" stop-color="#1575FB"/>
            <stop offset="1" stop-color="#44C6FE"/>
        </linearGradient>
        <linearGradient id="paint1_linear_1_160" x1="49.03" y1="47.7701" x2="75.65" y2="21.1501" gradientUnits="userSpaceOnUse">
            <stop stop-color="white" stop-opacity="0.9"/>
            <stop offset="0.34" stop-color="white" stop-opacity="0"/>
            <stop offset="0.86" stop-color="white" stop-opacity="0.9"/>
        </linearGradient>
    </defs>
</svg>
