<svg width="29" height="29" viewBox="0 0 29 29" fill="none" xmlns="http://www.w3.org/2000/svg">
    <circle cx="14.5" cy="14.5" r="14" stroke="#5180F7"/>
    <path d="M16.6953 23.7037L16.6952 16.7312L23.7658 16.7312C24.2607 16.7146 24.6757 16.2996 24.6912 15.8058L24.7656 13.4132C24.7812 12.9174 24.3915 12.5277 23.8967 12.5443L16.8261 12.5443L16.8975 5.48615C16.9131 4.99035 16.6302 4.70738 16.1344 4.723L13.638 4.6936C13.1431 4.7102 12.7292 5.12415 12.7126 5.61898L12.6422 12.6781L5.58296 12.6761C5.08814 12.6927 4.67418 13.1067 4.65758 13.6015L4.5812 15.9942C4.56664 16.4889 4.95531 16.8776 5.45007 16.863L12.5093 16.863L12.5083 23.8366C12.4927 24.3303 12.8856 24.6446 13.3803 24.63H15.7709C16.2657 24.6134 16.6796 24.1995 16.6953 23.7037Z" fill="#5180F7"/>
</svg>
