<svg width="132" height="55" viewBox="0 0 132 55" fill="none" xmlns="http://www.w3.org/2000/svg">
    <g clip-path="url(#clip0_1_6)">
        <path d="M54.647 7.61724V7.95846C54.352 8.10652 54.0546 8.37418 53.7544 8.76048C53.4538 9.14725 53.1848 9.67639 52.947 10.3479L49.6318 19.7012C49.2687 19.6784 48.9685 19.667 48.7308 19.667C48.493 19.667 48.2093 19.6784 47.8468 19.7012L43.3922 9.05091C43.2447 8.68692 43.0831 8.41689 42.9077 8.24035C42.7318 8.06429 42.5593 7.97032 42.3891 7.95893V7.61772C43.205 7.65189 44.2365 7.66897 45.4836 7.66897C46.7306 7.66897 47.7276 7.65189 48.3398 7.61772V7.95893C47.9092 7.98171 47.6028 8.03297 47.4218 8.11269C47.2402 8.19242 47.1499 8.35188 47.1499 8.59058C47.1499 8.78421 47.218 9.05139 47.3542 9.3926L50.2955 16.6635L51.9444 12.0212C52.3183 10.9743 52.5055 10.1325 52.5055 9.49511C52.5055 8.50516 52.0408 7.9931 51.1114 7.95893V7.61772C51.9614 7.65189 52.7036 7.66897 53.3384 7.66897C53.8712 7.66897 54.3075 7.65189 54.6474 7.61772L54.647 7.61724Z" fill="#040000"/>
        <path d="M65.2985 19.077C65.4739 19.2536 65.6469 19.3476 65.8171 19.3585V19.6997C65.0011 19.6655 63.9696 19.6484 62.7226 19.6484C61.4755 19.6484 60.4785 19.6655 59.8663 19.6997V19.3585C60.297 19.3357 60.6029 19.2816 60.7844 19.1962C60.9654 19.1107 61.0562 18.9603 61.0562 18.7439C61.0562 18.5389 60.9881 18.266 60.852 17.9248L59.8489 15.1258H56.4145L56.1256 15.8937C55.7517 16.8608 55.5645 17.6002 55.5645 18.1123C55.5645 18.5788 55.6945 18.8972 55.9555 19.068C56.2159 19.2389 56.6017 19.3357 57.1118 19.358V19.6992C56.2618 19.665 55.5191 19.648 54.8847 19.648C54.352 19.648 53.9156 19.665 53.5757 19.6992V19.358C53.8594 19.3124 54.1255 19.1359 54.3747 18.8288C54.6238 18.5218 54.8791 18.0325 55.1395 17.361L58.9138 7.61529C59.2764 7.63807 59.577 7.64946 59.8148 7.64946C60.0526 7.64946 60.3362 7.63807 60.6988 7.61529L64.813 18.2655C64.96 18.63 65.1217 18.9 65.2975 19.0761L65.2985 19.077ZM59.7307 14.7846L58.1834 10.5177L56.5511 14.7846H59.7302H59.7307Z" fill="#040000"/>
        <path d="M72.7193 7.95798C72.3114 7.98076 72.0135 8.02632 71.8268 8.09466C71.6396 8.163 71.5124 8.29398 71.4444 8.48713C71.3763 8.68075 71.3423 8.99349 71.3423 9.42582V18.2328C71.3423 18.5518 71.3649 18.7848 71.4103 18.9328C71.4557 19.0809 71.5351 19.1801 71.6481 19.2313C71.7611 19.2826 71.9483 19.3082 72.2092 19.3082H72.7704C73.167 19.3082 73.5976 19.1094 74.0623 18.7107C74.527 18.3126 74.9463 17.7863 75.3203 17.1318C75.6942 16.4779 75.9433 15.7978 76.0681 15.0922H76.4591C76.425 15.5017 76.408 16.0252 76.408 16.6625C76.408 17.8912 76.4477 18.9044 76.5271 19.7007C75.7561 19.6665 74.4585 19.6494 72.6338 19.6494C69.9817 19.6494 67.9977 19.6665 66.683 19.7007V19.3595C67.0456 19.3367 67.3094 19.2911 67.4734 19.2228C67.6375 19.1545 67.7481 19.024 67.8048 18.8303C67.8616 18.6372 67.8899 18.324 67.8899 17.8916V9.4263C67.8899 8.99397 67.8587 8.68123 67.7963 8.4876C67.7339 8.29445 67.6233 8.16347 67.4649 8.09513C67.3061 8.0268 67.0456 7.98171 66.683 7.95846V7.61724C67.3293 7.65141 68.3376 7.6685 69.7095 7.6685C71.0813 7.6685 72.0159 7.65141 72.7188 7.61724V7.95846L72.7193 7.95798Z" fill="#040000"/>
        <path d="M89.1258 7.95698C88.7746 8.03671 88.5136 8.15915 88.3439 8.32382C88.1738 8.48897 88.0603 8.74191 88.004 9.08313C87.9473 9.42434 87.919 9.9364 87.919 10.6193V14.7324C87.919 16.3711 87.6864 17.5769 87.2217 18.3505C86.9158 18.8625 86.4653 19.255 85.8701 19.5284C85.275 19.8012 84.5073 19.9379 83.5665 19.9379C82.1952 19.9379 81.1296 19.665 80.3704 19.1188C79.815 18.7206 79.4439 18.1858 79.2567 17.5143C79.0695 16.8433 78.9763 15.933 78.9763 14.7836V9.42434C78.9763 8.99201 78.948 8.67927 78.8913 8.48565C78.8345 8.2925 78.7239 8.16152 78.5599 8.09318C78.3954 8.02484 78.1321 7.97976 77.7695 7.95651V7.61529C78.4157 7.64946 79.4127 7.66654 80.7618 7.66654C82.111 7.66654 83.1137 7.64946 83.8053 7.61529V7.95651C83.3973 7.97928 83.0995 8.02484 82.9128 8.09318C82.7256 8.16152 82.5984 8.2925 82.5303 8.48565C82.4622 8.67927 82.4282 8.99201 82.4282 9.42434V16.3881C82.4282 17.4806 82.5984 18.2461 82.9383 18.6836C83.2782 19.1217 83.8166 19.3409 84.5536 19.3409C85.6305 19.3409 86.3954 18.957 86.8487 18.1887C87.302 17.4208 87.5289 16.3312 87.5289 14.9203V10.9605C87.5289 10.1186 87.4949 9.51261 87.4268 9.14292C87.3588 8.77324 87.2084 8.50273 86.9763 8.33236C86.7438 8.16152 86.3556 8.03671 85.8115 7.95698V7.61577C86.2762 7.64993 86.9106 7.66702 87.7157 7.66702C88.3165 7.66702 88.7869 7.64993 89.1268 7.61577V7.95698H89.1258Z" fill="#040000"/>
        <path d="M100.5 19.6987C99.7288 19.6646 98.4311 19.6475 96.6064 19.6475C93.9544 19.6475 91.9704 19.6646 90.6557 19.6987V19.3575C91.0183 19.3347 91.2821 19.2892 91.4461 19.2208C91.6101 19.1525 91.7208 19.022 91.7775 18.8284C91.8342 18.6352 91.8626 18.322 91.8626 17.8897V9.42434C91.8626 8.99201 91.8314 8.67927 91.769 8.48565C91.7066 8.2925 91.596 8.16152 91.4376 8.09318C91.2788 8.02484 91.0183 7.97976 90.6557 7.95651V7.61529C91.9704 7.64946 93.9539 7.66654 96.6064 7.66654C98.2728 7.66654 99.457 7.64946 100.16 7.61529C100.08 8.68497 100.041 9.64075 100.041 10.4826C100.041 11.0061 100.058 11.4156 100.092 11.7113H99.7009C99.4967 10.3915 99.1171 9.44428 98.5616 8.86957C98.0062 8.29535 97.3429 8.00776 96.5724 8.00776H96.3511C96.0453 8.00776 95.8212 8.03339 95.6794 8.08464C95.5376 8.13589 95.4411 8.2327 95.3906 8.3746C95.3395 8.51697 95.314 8.75283 95.314 9.08313V13.4525H95.4842C96.0732 13.4525 96.5781 13.2195 96.9974 12.7525C97.4167 12.286 97.6828 11.7682 97.7963 11.1992H98.1872C98.1532 11.6771 98.1362 12.212 98.1362 12.8037V13.6228C98.1362 14.2032 98.1702 15.011 98.2383 16.0465H97.8473C97.7452 15.3977 97.4819 14.86 97.0569 14.4334C96.6319 14.0068 96.1077 13.7932 95.4842 13.7932H95.314V18.2309C95.314 18.5612 95.3395 18.7971 95.3906 18.9394C95.4416 19.0818 95.5376 19.1781 95.6794 19.2294C95.8212 19.2806 96.0448 19.3063 96.3511 19.3063H96.9123C97.5694 19.3063 98.1929 18.985 98.7824 18.3419C99.3714 17.6994 99.7912 16.6724 100.04 15.261H100.431C100.397 15.6706 100.38 16.194 100.38 16.8314C100.38 17.9922 100.42 18.948 100.499 19.6987H100.5Z" fill="#040000"/>
        <path d="M119.691 7.95698C119.34 8.03671 119.079 8.15915 118.909 8.32382C118.739 8.48897 118.626 8.74191 118.569 9.08313C118.513 9.42434 118.484 9.9364 118.484 10.6193V14.7324C118.484 16.3711 118.252 17.5769 117.787 18.3505C117.481 18.8625 117.031 19.255 116.435 19.5284C115.84 19.8012 115.072 19.9379 114.132 19.9379C112.76 19.9379 111.695 19.665 110.936 19.1188C110.38 18.7206 110.009 18.1858 109.822 17.5143C109.635 16.8433 109.542 15.933 109.542 14.7836V9.42434C109.542 8.99201 109.513 8.67927 109.456 8.48565C109.4 8.2925 109.289 8.16152 109.125 8.09318C108.961 8.02484 108.697 7.97976 108.335 7.95651V7.61529C108.981 7.64946 109.978 7.66654 111.327 7.66654C112.676 7.66654 113.679 7.64946 114.37 7.61529V7.95651C113.963 7.97928 113.665 8.02484 113.478 8.09318C113.291 8.16152 113.164 8.2925 113.096 8.48565C113.027 8.67927 112.993 8.99201 112.993 9.42434V16.3881C112.993 17.4806 113.164 18.2461 113.504 18.6836C113.843 19.1217 114.382 19.3409 115.119 19.3409C116.196 19.3409 116.961 18.957 117.414 18.1887C117.867 17.4208 118.094 16.3312 118.094 14.9203V10.9605C118.094 10.1186 118.06 9.51261 117.992 9.14292C117.924 8.77324 117.774 8.50273 117.542 8.33236C117.309 8.16152 116.921 8.03671 116.377 7.95698V7.61577C116.841 7.64993 117.476 7.66702 118.281 7.66702C118.882 7.66702 119.352 7.64993 119.692 7.61577V7.95698H119.691Z" fill="#040000"/>
        <path d="M125.879 14.8173V17.7188C125.879 18.1967 125.928 18.5441 126.024 18.76C126.12 18.9764 126.296 19.1212 126.551 19.1952C126.806 19.2692 127.211 19.3063 127.767 19.3063V19.6987C126.236 19.6646 125.069 19.6475 124.264 19.6475C123.731 19.6475 122.989 19.6589 122.037 19.6816L121.221 19.6987V19.3575C121.584 19.3347 121.847 19.2892 122.012 19.2208C122.176 19.1525 122.286 19.022 122.343 18.8284C122.4 18.6352 122.428 18.322 122.428 17.8897V9.42434C122.428 8.99201 122.397 8.67927 122.334 8.48565C122.272 8.2925 122.161 8.16152 122.003 8.09318C121.844 8.02484 121.584 7.97976 121.221 7.95651V7.61529C121.867 7.64946 122.842 7.66654 124.145 7.66654L126.101 7.64946C126.327 7.63807 126.588 7.63238 126.883 7.63238C128.56 7.63238 129.832 7.93705 130.699 8.54544C131.566 9.15431 132 9.97057 132 10.9947C132 11.6206 131.83 12.221 131.49 12.7952C131.15 13.3699 130.572 13.8506 129.756 14.2374C128.94 14.6242 127.857 14.8178 126.509 14.8178H125.879V14.8173ZM126.211 8.07562C126.08 8.15535 125.992 8.29772 125.947 8.50226C125.902 8.70727 125.879 9.01432 125.879 9.42387V14.4761H126.338C127.132 14.4761 127.679 14.1805 127.979 13.5887C128.279 12.9974 128.43 12.1949 128.43 11.1821C128.43 10.0788 128.305 9.26489 128.056 8.74144C127.806 8.21799 127.387 7.95651 126.798 7.95651C126.537 7.95651 126.342 7.99637 126.211 8.0761L126.211 8.07562Z" fill="#040000"/>
        <path d="M6.08827 7.65288H0L13.9772 37.0443L16.5186 31.6233C16.5186 31.6233 16.0326 30.3396 15.974 30.1455C15.6005 28.9045 15.3821 27.6132 15.333 26.3176C15.177 22.2098 16.9081 18.417 19.9066 15.6489C21.277 14.3837 22.803 13.3059 24.2997 12.1988C25.55 11.2738 26.201 10.8159 27.3072 9.72626C27.8754 9.16627 28.8147 8.02351 29.1707 7.30787C30.1464 5.34695 30.0405 3.05242 29.3848 1.00893C29.303 0.754088 29.1224 0.273825 29.0137 0C29.0137 0 28.5902 4.99577 23.8255 9.4605C23.8255 9.4605 17.8431 14.1905 16.0959 17.6454C16.0959 17.6454 14.1908 20.5151 14.0802 24.4976L6.08827 7.65288Z" fill="#040000"/>
        <path d="M16.7296 30.1162C16.7296 30.1162 13.4106 21.8099 22.1523 15.5218C22.1523 15.5218 29.7717 10.7823 30.7536 8.20117C30.8084 8.3312 30.9063 8.65486 30.9304 8.74218C31.0613 9.21912 31.1426 9.71125 31.1786 10.2043C31.292 11.7619 30.9157 13.3213 30.0729 14.6373C28.9709 16.3576 27.175 17.5653 25.5455 18.7366C24.6478 19.3815 23.691 19.9453 22.8368 20.6486C21.2286 21.9731 19.8548 23.5278 18.7694 25.3108C17.8585 26.8071 17.2057 28.4315 16.7301 30.1162H16.7296Z" fill="#040000"/>
        <path d="M17.0962 30.6176C17.2162 30.2806 17.3538 29.9494 17.4937 29.6205C17.8426 28.7995 18.2293 27.9941 18.6519 27.2083C19.2045 26.1803 19.8191 25.1838 20.5187 24.2498C20.9324 23.6974 21.3748 23.1654 21.857 22.6719C22.8379 21.6682 24.0245 20.8381 25.1581 20.0195C25.532 19.7495 25.9263 19.4733 26.3026 19.2246C26.3026 19.2246 27.2457 23.108 22.5302 26.6378L17.0957 30.6171L17.0962 30.6176Z" fill="#040000"/>
        <path d="M39.6656 31.9227V34.8242C39.6656 35.3021 39.7138 35.6495 39.8102 35.8654C39.9062 36.0818 40.0821 36.2266 40.3373 36.3006C40.5921 36.3747 40.9973 36.4117 41.5527 36.4117V36.8041C40.0225 36.77 38.8549 36.7529 38.0503 36.7529C37.5175 36.7529 36.7753 36.7643 35.8233 36.7871L35.0073 36.8041V36.4629C35.3699 36.4401 35.6337 36.3946 35.7977 36.3263C35.9618 36.2579 36.0724 36.1274 36.1291 35.9338C36.1858 35.7406 36.2142 35.4274 36.2142 34.9951V26.5298C36.2142 26.0974 36.183 25.7847 36.1206 25.5911C36.0582 25.3979 35.9476 25.2669 35.7892 25.1986C35.6304 25.1303 35.3699 25.0852 35.0073 25.0619V24.7207C35.6535 24.7549 36.6278 24.772 37.9316 24.772L39.8868 24.7549C40.1133 24.7435 40.3742 24.7378 40.6687 24.7378C42.346 24.7378 43.6185 25.0425 44.4855 25.6509C45.3525 26.2597 45.786 27.076 45.786 28.1001C45.786 28.7261 45.6158 29.3264 45.2759 29.9006C44.936 30.4753 44.3579 30.956 43.542 31.3428C42.726 31.7296 41.6435 31.9232 40.2948 31.9232H39.6656V31.9227ZM39.997 25.181C39.8665 25.2608 39.7786 25.4031 39.7337 25.6077C39.6883 25.8127 39.6656 26.1197 39.6656 26.5293V31.5815H40.1246C40.9178 31.5815 41.4648 31.2859 41.7655 30.6941C42.0656 30.1028 42.216 29.3003 42.216 28.2876C42.216 27.1842 42.0912 26.3703 41.842 25.8469C41.5924 25.3234 41.1731 25.0619 40.5841 25.0619C40.3232 25.0619 40.1279 25.1018 39.9974 25.1815L39.997 25.181Z" fill="#040000"/>
        <path d="M57.1348 36.1825C57.3102 36.359 57.4832 36.453 57.6534 36.4639V36.8051C56.8375 36.7709 55.806 36.7538 54.5589 36.7538C53.3119 36.7538 52.3149 36.7709 51.7027 36.8051V36.4639C52.1334 36.4411 52.4392 36.387 52.6207 36.3016C52.8018 36.2162 52.8926 36.0657 52.8926 35.8493C52.8926 35.6443 52.8245 35.3714 52.6883 35.0302L51.6852 32.2312H48.2508L47.962 32.9991C47.5881 33.9662 47.4009 34.7056 47.4009 35.2177C47.4009 35.6842 47.5309 36.0026 47.7918 36.1734C48.0523 36.3443 48.438 36.4411 48.9481 36.4634V36.8046C48.0981 36.7704 47.3555 36.7534 46.7211 36.7534C46.1883 36.7534 45.752 36.7704 45.4121 36.8046V36.4634C45.6957 36.4178 45.9619 36.2413 46.211 35.9343C46.4601 35.6272 46.7154 35.1379 46.9759 34.4664L50.7502 24.7207C51.1127 24.7435 51.4134 24.7549 51.6512 24.7549C51.889 24.7549 52.1721 24.7435 52.5352 24.7207L56.6493 35.371C56.7964 35.7354 56.958 36.0054 57.1339 36.1815L57.1348 36.1825ZM51.567 31.89L50.0198 27.6232L48.3875 31.89H51.5666H51.567Z" fill="#040000"/>
        <path d="M70.7273 36.1227C70.3874 36.4639 70.013 36.7031 69.605 36.8398C69.1971 36.9765 68.721 37.0448 68.1769 37.0448C67.395 37.0448 66.7885 36.9053 66.3579 36.6267C65.9272 36.3481 65.6606 35.8731 65.559 35.2016L65.3042 33.495C65.1907 32.6987 65.0347 32.0955 64.8366 31.686C64.6381 31.2764 64.3407 31.0714 63.9441 31.0714H63.1792V34.997C63.1792 35.4294 63.2104 35.7426 63.2728 35.9357C63.3348 36.1294 63.4454 36.2599 63.6042 36.3282C63.7626 36.3965 64.0235 36.4421 64.3861 36.4649V36.8061C63.7286 36.7719 62.7822 36.7548 61.5469 36.7548C60.1755 36.7548 59.1667 36.7719 58.5205 36.8061V36.4649C58.8831 36.4421 59.1464 36.3965 59.3109 36.3282C59.4749 36.2599 59.5856 36.1294 59.6423 35.9357C59.699 35.7426 59.7274 35.4294 59.7274 34.997V26.5317C59.7274 26.0994 59.6962 25.7866 59.6338 25.593C59.5714 25.3999 59.4608 25.2689 59.3024 25.2005C59.1436 25.1322 58.8831 25.0871 58.5205 25.0639V24.7227C59.1667 24.7568 60.141 24.7739 61.4448 24.7739L63.4 24.7568C63.6264 24.7454 63.8874 24.7397 64.1819 24.7397C65.9045 24.7397 67.1885 24.9846 68.0328 25.4734C68.877 25.9627 69.2992 26.7082 69.2992 27.7091C69.2992 28.5624 68.9815 29.2908 68.3471 29.8935C67.7122 30.4967 66.6472 30.8664 65.151 31.0031C66.3073 31.0828 67.1799 31.3016 67.7694 31.6604C68.3585 32.0187 68.7215 32.5454 68.8577 33.2392L69.2146 35.0141C69.2935 35.4351 69.39 35.7255 69.5034 35.8845C69.6164 36.0439 69.7752 36.1237 69.9794 36.1237C70.1837 36.1237 70.359 36.0496 70.5065 35.9016L70.7278 36.1237L70.7273 36.1227ZM63.5102 25.1825C63.3797 25.2622 63.2918 25.4046 63.2468 25.6091C63.2015 25.8142 63.1788 26.1212 63.1788 26.5308V30.7293H63.6378C64.4424 30.7293 64.9922 30.4815 65.2871 29.987C65.5816 29.4921 65.7291 28.7954 65.7291 27.8961C65.7291 26.9968 65.6015 26.2574 65.3467 25.7795C65.0919 25.3016 64.675 25.0624 64.0973 25.0624C63.8363 25.0624 63.6411 25.1023 63.5106 25.182L63.5102 25.1825Z" fill="#040000"/>
        <path d="M82.5259 28.1001C82.5259 28.6235 82.5429 29.0331 82.5769 29.3288H82.186C81.8121 27.8381 81.3299 26.7632 80.7408 26.1031C80.1514 25.4435 79.517 25.1132 78.8367 25.1132H78.8197V34.876C78.8197 35.3539 78.8679 35.7012 78.9643 35.9172C79.0603 36.1336 79.2362 36.2783 79.4914 36.3524C79.7462 36.4264 80.1514 36.4634 80.7068 36.4634V36.8046C79.1085 36.7704 77.8676 36.7534 76.9836 36.7534C76.1785 36.7534 75.0114 36.7704 73.4812 36.8046V36.4634C74.0361 36.4634 74.4417 36.4264 74.6965 36.3524C74.9513 36.2783 75.1272 36.1336 75.2236 35.9172C75.3196 35.7012 75.3683 35.3539 75.3683 34.876V25.1132H75.3513C74.6597 25.1132 74.0224 25.4406 73.4386 26.0946C72.8548 26.749 72.3759 27.8267 72.002 29.3288H71.611C71.6451 29.0331 71.6621 28.6235 71.6621 28.1001C71.6621 27.1102 71.6224 25.9835 71.543 24.7207C72.6198 24.7549 74.4729 24.772 77.1023 24.772C79.7316 24.772 81.5676 24.7549 82.6445 24.7207C82.5651 25.9835 82.5254 27.1102 82.5254 28.1001H82.5259Z" fill="#040000"/>
        <path d="M95.9231 25.0623C95.5719 25.1421 95.3109 25.2645 95.1412 25.4292C94.9711 25.5943 94.8576 25.8473 94.8013 26.1885C94.7446 26.5297 94.7163 27.0418 94.7163 27.7247V36.8046C94.4893 36.7818 94.3026 36.7704 94.1551 36.7704C94.0303 36.7704 93.8209 36.7818 93.5259 36.8046L85.9944 28.5438V33.4593C85.9944 34.3017 86.0284 34.9072 86.0965 35.2769C86.1646 35.6466 86.3145 35.9171 86.547 36.0875C86.7791 36.2583 87.1677 36.3836 87.7118 36.4629V36.8041C87.2471 36.7699 86.6123 36.7528 85.8077 36.7528C85.2068 36.7528 84.7365 36.7699 84.3966 36.8041V36.4629C84.7478 36.3836 85.0088 36.2612 85.1785 36.096C85.3487 35.9314 85.4616 35.6779 85.5184 35.3367C85.5751 34.9955 85.6035 34.4835 85.6035 33.8006V26.5297C85.6035 26.0974 85.5723 25.7846 85.5099 25.591C85.4475 25.3979 85.3368 25.2669 85.1785 25.1985C85.0196 25.1302 84.7592 25.0851 84.3966 25.0619V24.7207C84.7365 24.7548 85.2068 24.7719 85.8077 24.7719C86.4085 24.7719 86.9408 24.7548 87.3719 24.7207L94.3258 32.094V28.0659C94.3258 27.224 94.2917 26.618 94.2237 26.2483C94.1556 25.8786 94.0053 25.6081 93.7732 25.4377C93.5406 25.2669 93.1525 25.1421 92.6084 25.0623V24.7211C93.073 24.7553 93.7075 24.7724 94.5125 24.7724C95.1133 24.7724 95.5837 24.7553 95.9236 24.7211V25.0623H95.9231Z" fill="#040000"/>
        <path d="M107.501 36.8041C106.73 36.77 105.433 36.7529 103.608 36.7529C100.956 36.7529 98.9724 36.77 97.6572 36.8041V36.4629C98.0198 36.4401 98.2831 36.3946 98.4476 36.3263C98.6117 36.2579 98.7223 36.1274 98.779 35.9338C98.8357 35.7406 98.8641 35.4274 98.8641 34.9951V26.5298C98.8641 26.0974 98.8329 25.7847 98.7705 25.5911C98.7081 25.3979 98.5975 25.2669 98.4391 25.1986C98.2803 25.1303 98.0198 25.0852 97.6572 25.0619V24.7207C98.9719 24.7549 100.955 24.772 103.608 24.772C105.274 24.772 106.458 24.7549 107.161 24.7207C107.082 25.7904 107.042 26.7462 107.042 27.588C107.042 28.1115 107.059 28.521 107.093 28.8167H106.702C106.498 27.4969 106.119 26.5497 105.563 25.975C105.008 25.4008 104.344 25.1132 103.574 25.1132H103.353C103.047 25.1132 102.823 25.1388 102.681 25.1901C102.539 25.2413 102.443 25.3381 102.392 25.48C102.341 25.6224 102.315 25.8582 102.315 26.1885V30.5579H102.486C103.075 30.5579 103.58 30.3249 103.999 29.8579C104.418 29.3914 104.684 28.8736 104.798 28.3046H105.189C105.155 28.7825 105.138 29.3174 105.138 29.9092V30.7283C105.138 31.3086 105.172 32.1164 105.24 33.1519H104.849C104.747 32.5031 104.483 31.9655 104.058 31.5388C103.633 31.1122 103.109 30.8986 102.486 30.8986H102.315V35.3363C102.315 35.6666 102.341 35.9025 102.392 36.0448C102.443 36.1872 102.539 36.2835 102.681 36.3348C102.823 36.386 103.046 36.4117 103.353 36.4117H103.914C104.571 36.4117 105.194 36.0904 105.784 35.4474C106.373 34.8048 106.793 33.7778 107.042 32.3665H107.433C107.399 32.776 107.382 33.2995 107.382 33.9368C107.382 35.0976 107.421 36.0534 107.501 36.8041H107.501Z" fill="#040000"/>
        <path d="M121.765 36.1227C121.425 36.4639 121.051 36.7031 120.643 36.8398C120.235 36.9765 119.759 37.0448 119.215 37.0448C118.433 37.0448 117.827 36.9053 117.396 36.6267C116.965 36.3481 116.699 35.8731 116.597 35.2016L116.342 33.495C116.229 32.6987 116.073 32.0955 115.875 31.686C115.676 31.2764 115.379 31.0714 114.982 31.0714H114.217V34.997C114.217 35.4294 114.249 35.7426 114.311 35.9357C114.373 36.1294 114.483 36.2599 114.642 36.3282C114.801 36.3965 115.062 36.4421 115.424 36.4649V36.8061C114.767 36.7719 113.82 36.7548 112.585 36.7548C111.214 36.7548 110.205 36.7719 109.559 36.8061V36.4649C109.921 36.4421 110.184 36.3965 110.349 36.3282C110.513 36.2599 110.624 36.1294 110.68 35.9357C110.737 35.7426 110.765 35.4294 110.765 34.997V26.5317C110.765 26.0994 110.734 25.7866 110.672 25.593C110.609 25.3999 110.499 25.2689 110.34 25.2005C110.182 25.1322 109.921 25.0871 109.559 25.0639V24.7227C110.205 24.7568 111.179 24.7739 112.483 24.7739L114.438 24.7568C114.665 24.7454 114.925 24.7397 115.22 24.7397C116.943 24.7397 118.227 24.9846 119.071 25.4734C119.915 25.9627 120.337 26.7082 120.337 27.7091C120.337 28.5624 120.02 29.2908 119.385 29.8935C118.75 30.4967 117.685 30.8664 116.189 31.0031C117.345 31.0828 118.218 31.3016 118.808 31.6604C119.397 32.0187 119.76 32.5454 119.896 33.2392L120.253 35.0141C120.332 35.4351 120.428 35.7255 120.541 35.8845C120.654 36.0439 120.813 36.1237 121.018 36.1237C121.222 36.1237 121.397 36.0496 121.545 35.9016L121.766 36.1237L121.765 36.1227ZM114.548 25.1825C114.418 25.2622 114.33 25.4046 114.285 25.6091C114.24 25.8142 114.217 26.1212 114.217 26.5308V30.7293H114.676C115.48 30.7293 116.03 30.4815 116.325 29.987C116.62 29.4921 116.767 28.7954 116.767 27.8961C116.767 26.9968 116.64 26.2574 116.385 25.7795C116.13 25.3016 115.713 25.0624 115.135 25.0624C114.874 25.0624 114.679 25.1023 114.549 25.182L114.548 25.1825Z" fill="#040000"/>
        <path d="M128.897 24.6613C129.3 24.7809 129.693 24.9489 130.079 25.1649C130.204 25.2332 130.314 25.2901 130.411 25.3357C130.507 25.3813 130.589 25.404 130.657 25.404C130.759 25.404 130.838 25.3442 130.895 25.2246C130.952 25.1051 130.997 24.9148 131.031 24.6528H131.422C131.365 25.4719 131.337 26.8605 131.337 28.8171H130.946C130.901 28.1684 130.753 27.5486 130.504 26.9568C130.255 26.3655 129.915 25.8814 129.484 25.5061C129.053 25.1307 128.555 24.9428 127.988 24.9428C127.466 24.9428 127.047 25.0823 126.73 25.3608C126.413 25.6399 126.254 26.0295 126.254 26.5302C126.254 26.917 126.339 27.2529 126.509 27.5372C126.679 27.822 126.928 28.0977 127.257 28.3649C127.585 28.6325 128.124 29.0278 128.872 29.5513C128.94 29.5854 129.005 29.6253 129.068 29.6709C129.13 29.7164 129.189 29.762 129.246 29.8075C129.869 30.2399 130.368 30.6243 130.742 30.9598C131.116 31.2953 131.419 31.6849 131.652 32.1291C131.884 32.5729 132 33.0849 132 33.6653C132 34.4052 131.793 35.0283 131.38 35.5342C130.966 36.0405 130.408 36.4192 129.705 36.6693C129.002 36.9194 128.226 37.0447 127.376 37.0447C126.685 37.0447 126.11 36.9878 125.651 36.8739C125.192 36.7604 124.764 36.6067 124.367 36.4131C124.118 36.2541 123.925 36.1743 123.789 36.1743C123.687 36.1743 123.608 36.2341 123.551 36.3537C123.495 36.4733 123.449 36.6641 123.415 36.9256H123.024C123.07 36.152 123.092 34.502 123.092 31.9758H123.483C123.562 33.3303 123.846 34.4279 124.333 35.2698C124.821 36.1122 125.568 36.5326 126.577 36.5326C127.2 36.5326 127.697 36.3851 128.065 36.0889C128.433 35.7933 128.618 35.3837 128.618 34.8603C128.618 34.2115 128.416 33.6572 128.014 33.196C127.612 32.7352 126.985 32.2202 126.135 31.6512C125.455 31.1961 124.911 30.798 124.503 30.4563C124.095 30.1151 123.76 29.7197 123.5 29.2699C123.239 28.8204 123.109 28.2998 123.109 27.7081C123.109 26.9915 123.301 26.3911 123.687 25.9075C124.072 25.424 124.585 25.0657 125.226 24.8322C125.866 24.5992 126.566 24.4824 127.326 24.4824C127.972 24.4824 128.496 24.5422 128.898 24.6618L128.897 24.6613Z" fill="#040000"/>
        <path d="M5.49735 48.1886V48.3405C5.36594 48.4064 5.23357 48.5256 5.09979 48.6978C4.96601 48.8701 4.84593 49.106 4.74004 49.4049L3.26371 53.5702C3.10204 53.5602 2.96826 53.555 2.86236 53.555C2.75647 53.555 2.63025 53.5602 2.46858 53.5702L0.485013 48.8269C0.419304 48.6646 0.347449 48.5445 0.268976 48.4658C0.190503 48.3875 0.113921 48.3452 0.0382843 48.3405V48.1886C0.401813 48.2038 0.860832 48.2114 1.41629 48.2114C1.97174 48.2114 2.41564 48.2038 2.6884 48.1886V48.3405C2.49647 48.3509 2.36033 48.3737 2.27949 48.4088C2.19865 48.4444 2.15847 48.5151 2.15847 48.6214C2.15847 48.7078 2.18873 48.8264 2.24924 48.9788L3.55917 52.2167L4.29379 50.1491C4.46019 49.683 4.54386 49.3081 4.54386 49.0239C4.54386 48.583 4.33681 48.3552 3.92317 48.3395V48.1877C4.30182 48.2029 4.63226 48.2104 4.91495 48.2104C5.15226 48.2104 5.34655 48.2029 5.49783 48.1877L5.49735 48.1886Z" fill="#040000"/>
        <path d="M5.59219 53.3623C5.42816 53.1876 5.3459 52.9684 5.3459 52.705C5.3459 52.4767 5.40499 52.2883 5.52365 52.1388C5.6423 51.9894 5.78223 51.874 5.9439 51.7929C6.10558 51.7117 6.315 51.6282 6.57216 51.5418C6.84492 51.4507 7.04394 51.3672 7.17016 51.2908C7.29638 51.2149 7.35925 51.1086 7.35925 50.9714V50.2951C7.35925 50.1328 7.3186 49.9886 7.23823 49.8619C7.1574 49.7352 7.01842 49.672 6.82176 49.672C6.66529 49.672 6.52394 49.7152 6.39772 49.8011C6.56932 49.8619 6.69696 49.952 6.78016 50.0711C6.86336 50.1903 6.90496 50.3231 6.90496 50.4703C6.90496 50.6677 6.83547 50.8262 6.69696 50.9453C6.55798 51.0644 6.39016 51.1237 6.1935 51.1237C5.99685 51.1237 5.84132 51.0616 5.72787 50.9377C5.61441 50.8134 5.55768 50.6553 5.55768 50.4627C5.55768 50.3108 5.5955 50.1789 5.67114 50.0674C5.74678 49.9558 5.86543 49.8547 6.0271 49.7632C6.3098 49.6009 6.71351 49.5197 7.23871 49.5197C7.5162 49.5197 7.75587 49.5463 7.9582 49.5994C8.16006 49.6526 8.33166 49.7527 8.473 49.8998C8.57369 50.0061 8.64082 50.1395 8.67344 50.2989C8.70606 50.4584 8.7226 50.6805 8.7226 50.9638V53.0011C8.7226 53.1278 8.73111 53.2137 8.74907 53.2598C8.76657 53.3053 8.79824 53.3281 8.84362 53.3281C8.87908 53.3281 8.91689 53.3167 8.95708 53.2939C8.99726 53.2712 9.03508 53.2446 9.07053 53.2142L9.14617 53.3433C8.92918 53.5307 8.6186 53.6247 8.21489 53.6247C7.91187 53.6247 7.70009 53.5725 7.5786 53.4691C7.45758 53.3651 7.39187 53.2247 7.38194 53.0472C7.14463 53.4325 6.79151 53.6247 6.32209 53.6247C5.99921 53.6247 5.75528 53.5374 5.59125 53.3623H5.59219ZM7.3602 52.8872V51.2832C7.31482 51.3591 7.23162 51.4578 7.11012 51.5798C6.97398 51.7117 6.87045 51.8394 6.79954 51.9637C6.72863 52.0881 6.69365 52.2565 6.69365 52.4691C6.69365 52.8341 6.82223 53.0163 7.07987 53.0163C7.18576 53.0163 7.27936 52.9731 7.3602 52.8872Z" fill="#040000"/>
        <path d="M11.502 52.864C11.502 53.0718 11.5336 53.2152 11.5965 53.2935C11.6594 53.3722 11.7695 53.4111 11.926 53.4111V53.5706C11.3809 53.5502 11.0221 53.5402 10.851 53.5402C10.6799 53.5402 10.3008 53.5507 9.71504 53.5706V53.4111C9.87152 53.4111 9.98119 53.3718 10.0445 53.2935C10.1074 53.2152 10.1391 53.0718 10.1391 52.864V48.5388C10.1391 48.3058 10.1074 48.1359 10.0445 48.0296C9.98119 47.9233 9.87152 47.8701 9.71504 47.8701V47.7106C9.87152 47.7258 10.028 47.7334 10.1845 47.7334C10.7092 47.7334 11.1484 47.6978 11.502 47.6271V52.8644V52.864Z" fill="#040000"/>
        <path d="M16.5901 52.7431C16.5901 52.9762 16.6217 53.1461 16.6846 53.2524C16.7475 53.3587 16.8576 53.4118 17.0141 53.4118V53.5713C16.8576 53.5561 16.7012 53.5485 16.5447 53.5485C16.0195 53.5485 15.5803 53.5841 15.2272 53.6548V53.1076C15.0003 53.4877 14.5989 53.6776 14.0231 53.6776C13.6194 53.6776 13.3339 53.576 13.1675 53.3734C13.0919 53.2823 13.0361 53.1593 13.0011 53.0046C12.9657 52.8499 12.9482 52.6463 12.9482 52.3929V50.4548C12.9482 50.2218 12.9165 50.0519 12.8536 49.9456C12.7903 49.8393 12.6806 49.7861 12.5241 49.7861V49.6267C12.6806 49.6418 12.8371 49.6494 12.9935 49.6494C13.5183 49.6494 13.9574 49.6138 14.311 49.5431V52.8039C14.311 52.9662 14.3399 53.0863 14.398 53.165C14.4562 53.2438 14.5507 53.2827 14.6821 53.2827C14.8287 53.2827 14.9558 53.231 15.0646 53.1271C15.1728 53.0231 15.2272 52.8926 15.2272 52.7356V50.4553C15.2272 50.2222 15.1955 50.0523 15.1326 49.946C15.0693 49.8397 14.9596 49.7866 14.8031 49.7866V49.6271C14.9596 49.6423 15.1161 49.6499 15.2726 49.6499C15.7973 49.6499 16.2365 49.6143 16.5901 49.5436V52.7436V52.7431Z" fill="#040000"/>
        <path d="M20.9666 52.3401L21.0952 52.3856C20.9841 52.7406 20.796 53.0443 20.5312 53.2977C20.266 53.5511 19.9266 53.6779 19.513 53.6779C18.983 53.6779 18.559 53.5132 18.2409 53.1838C17.9227 52.8545 17.7639 52.3277 17.7639 51.6026C17.7639 50.8774 17.9416 50.3877 18.2976 50.0403C18.6535 49.6934 19.1239 49.5197 19.7096 49.5197C20.6636 49.5197 21.1406 50.0873 21.1406 51.2224H19.1873C19.1821 51.2832 19.1797 51.3743 19.1797 51.4963C19.1797 51.9827 19.2643 52.3301 19.4335 52.5375C19.6028 52.7453 19.8084 52.8493 20.0505 52.8493C20.4187 52.8493 20.7241 52.6794 20.9666 52.3401ZM19.157 51.0782H20.0353C20.0401 50.6729 20.0112 50.3407 19.9483 50.0825C19.885 49.8239 19.7881 49.6948 19.6567 49.6948C19.374 49.6948 19.2076 50.1561 19.157 51.0782Z" fill="#040000"/>
        <path d="M24.858 51.8835H22.1246V51.1309H24.858V51.8835Z" fill="#040000"/>
        <path d="M29.7947 52.7431C29.7947 52.9762 29.8263 53.1461 29.8892 53.2524C29.9521 53.3587 30.0622 53.4118 30.2187 53.4118V53.5713C30.0622 53.5561 29.9057 53.5485 29.7493 53.5485C29.2241 53.5485 28.7849 53.5841 28.4318 53.6548V53.1076C28.2049 53.4877 27.8035 53.6776 27.2277 53.6776C26.824 53.6776 26.5385 53.576 26.3721 53.3734C26.2965 53.2823 26.2407 53.1593 26.2057 53.0046C26.1702 52.8499 26.1528 52.6463 26.1528 52.3929V50.4548C26.1528 50.2218 26.1211 50.0519 26.0582 49.9456C25.9949 49.8393 25.8852 49.7861 25.7287 49.7861V49.6267C25.8852 49.6418 26.0417 49.6494 26.1981 49.6494C26.7229 49.6494 27.162 49.6138 27.5156 49.5431V52.8039C27.5156 52.9662 27.5445 53.0863 27.6026 53.165C27.6608 53.2438 27.7553 53.2827 27.8867 53.2827C28.0333 53.2827 28.1604 53.231 28.2692 53.1271C28.3774 53.0231 28.4318 52.8926 28.4318 52.7356V50.4553C28.4318 50.2222 28.4001 50.0523 28.3372 49.946C28.2739 49.8397 28.1642 49.7866 28.0077 49.7866V49.6271C28.1642 49.6423 28.3207 49.6499 28.4772 49.6499C29.0019 49.6499 29.4411 49.6143 29.7947 49.5436V52.7436V52.7431Z" fill="#040000"/>
        <path d="M34.7618 50.0057C35.0043 50.3298 35.1253 50.8039 35.1253 51.427C35.1253 52.2328 34.9636 52.8094 34.6408 53.1563C34.3179 53.5037 33.891 53.6769 33.3611 53.6769C33.0685 53.6769 32.8335 53.6285 32.6567 53.5326V54.1633C32.6567 54.3964 32.7111 54.5587 32.8193 54.6498C32.9276 54.7409 33.0907 54.7864 33.3077 54.7864V54.9459L33.0879 54.9383C32.4823 54.9231 32.0909 54.9155 31.9141 54.9155C31.7628 54.9155 31.4144 54.9255 30.8693 54.9459V54.7864C31.0258 54.7864 31.1355 54.7471 31.1988 54.6688C31.2617 54.59 31.2934 54.4471 31.2934 54.2393V50.4617C31.2934 50.2287 31.2617 50.0588 31.1988 49.9525C31.1355 49.8462 31.0258 49.7931 30.8693 49.7931V49.6336C31.0258 49.6488 31.1823 49.6564 31.3388 49.6564C31.8635 49.6564 32.3027 49.6208 32.6563 49.5501V50.0897C32.8884 49.7095 33.2722 49.5197 33.8073 49.5197C34.2011 49.5197 34.5193 49.682 34.7613 50.0061L34.7618 50.0057ZM33.5237 52.9969C33.6476 52.6955 33.709 52.2304 33.709 51.6021C33.709 50.9738 33.6636 50.5419 33.5729 50.2909C33.4821 50.0398 33.3583 49.9145 33.2018 49.9145C33.0552 49.9145 32.9281 49.9667 32.8193 50.0702C32.7106 50.1741 32.6567 50.3046 32.6567 50.4617V53.3884C32.7224 53.4292 32.8108 53.4491 32.9219 53.4491C33.1994 53.4491 33.4003 53.2982 33.5237 52.9969Z" fill="#040000"/>
        <path d="M41.72 48.2128C41.9322 48.2991 42.1388 48.4206 42.3407 48.5777C42.3913 48.6233 42.439 48.646 42.4844 48.646C42.5851 48.646 42.6508 48.4942 42.681 48.19H42.855C42.8347 48.5497 42.8248 49.1832 42.8248 50.0901H42.6508C42.6153 49.6849 42.5496 49.3655 42.4541 49.1325C42.3582 48.8995 42.1918 48.7044 41.9545 48.5473C41.7171 48.3955 41.4822 48.3195 41.2501 48.3195C40.7249 48.3195 40.3566 48.573 40.1449 49.0798C39.9331 49.5866 39.8267 50.1922 39.8267 50.8964C39.8267 51.6007 39.9326 52.2062 40.1449 52.7131C40.3571 53.2199 40.7254 53.4733 41.2501 53.4733C41.4822 53.4733 41.7171 53.3974 41.9545 53.2451C42.1918 53.098 42.3582 52.9005 42.4541 52.6523C42.5501 52.4041 42.6158 52.052 42.6508 51.5959H42.8248C42.8248 52.5437 42.8347 53.2024 42.855 53.572H42.681C42.6659 53.4097 42.6442 53.2944 42.6168 53.2261C42.5889 53.1578 42.5496 53.1236 42.4995 53.1236C42.4589 53.1236 42.4059 53.144 42.3407 53.1843C42.1138 53.3466 41.8963 53.4695 41.6897 53.5531C41.4827 53.6366 41.2326 53.6784 40.94 53.6784C40.3694 53.6784 39.8697 53.5697 39.441 53.3514C39.0117 53.1335 38.6789 52.818 38.4416 52.4051C38.2043 51.9922 38.0856 51.4991 38.0856 50.9268C38.0856 50.3545 38.2067 49.8752 38.4492 49.4447C38.6917 49.0143 39.0297 48.6797 39.4637 48.4415C39.8976 48.2033 40.3926 48.0842 40.9475 48.0842C41.2506 48.0842 41.5077 48.1273 41.72 48.2132V48.2128Z" fill="#040000"/>
        <path d="M47.2398 50.0099C47.5778 50.3369 47.747 50.8675 47.747 51.6026C47.747 52.3377 47.5778 52.8668 47.2398 53.1914C46.9013 53.5156 46.4219 53.6779 45.8012 53.6779C45.1806 53.6779 44.7007 53.5156 44.3627 53.1914C44.0247 52.8673 43.8555 52.3377 43.8555 51.6026C43.8555 50.8675 44.0247 50.3369 44.3627 50.0099C44.7007 49.683 45.1806 49.5197 45.8012 49.5197C46.4219 49.5197 46.9018 49.683 47.2398 50.0099ZM45.415 50.1504C45.3191 50.4698 45.2713 50.9538 45.2713 51.6021C45.2713 52.2504 45.3191 52.7335 45.415 53.05C45.511 53.3665 45.6396 53.525 45.8012 53.525C45.9629 53.525 46.0915 53.3665 46.1875 53.05C46.2834 52.7335 46.3312 52.2508 46.3312 51.6021C46.3312 50.9534 46.283 50.4693 46.1875 50.1504C46.0915 49.831 45.9629 49.6716 45.8012 49.6716C45.6396 49.6716 45.511 49.831 45.415 50.1504Z" fill="#040000"/>
        <path d="M52.366 49.8234C52.4417 49.9145 52.4975 50.0375 52.5324 50.1922C52.5679 50.3469 52.5854 50.5509 52.5854 50.8039V52.864C52.5854 53.0718 52.6171 53.2152 52.6799 53.2935C52.7428 53.3722 52.8529 53.4111 53.0094 53.4111V53.5706C52.4644 53.5502 52.1108 53.5402 51.9496 53.5402C51.778 53.5402 51.4196 53.5507 50.8746 53.5706V53.4111C51.006 53.4111 51.0968 53.3718 51.1473 53.2935C51.1979 53.2152 51.223 53.0718 51.223 52.864V50.3934C51.223 50.2311 51.1937 50.111 51.136 50.0322C51.0778 49.9539 50.9833 49.9145 50.8519 49.9145C50.7053 49.9145 50.5782 49.9667 50.4694 50.0702C50.3607 50.1741 50.3068 50.3046 50.3068 50.4617V52.8635C50.3068 53.0714 50.3319 53.2147 50.3825 53.293C50.433 53.3718 50.5238 53.4107 50.6552 53.4107V53.5701C50.1504 53.5497 49.8171 53.5398 49.6559 53.5398C49.4843 53.5398 49.1056 53.5502 48.5199 53.5701V53.4107C48.6764 53.4107 48.7861 53.3713 48.8494 53.293C48.9123 53.2147 48.9439 53.0714 48.9439 52.8635V50.4541C48.9439 50.2211 48.9123 50.0512 48.8494 49.9449C48.7861 49.8386 48.6764 49.7855 48.5199 49.7855V49.626C48.6816 49.6412 48.8381 49.6488 48.9893 49.6488C49.5141 49.6488 49.9532 49.6132 50.3068 49.5425V50.0897C50.5337 49.7095 50.9351 49.5197 51.5109 49.5197C51.9146 49.5197 52.2001 49.6213 52.3665 49.8239L52.366 49.8234Z" fill="#040000"/>
        <path d="M55.7768 49.5852C55.9508 49.6284 56.0836 49.6754 56.1744 49.7257C56.2297 49.756 56.2751 49.7712 56.3106 49.7712C56.4164 49.7712 56.4798 49.6901 56.4996 49.5278H56.6509C56.6306 49.7912 56.6207 50.2472 56.6207 50.8959H56.4694C56.4287 50.5614 56.3342 50.279 56.1853 50.0484C56.0364 49.8177 55.8203 49.7024 55.5381 49.7024C55.4119 49.7024 55.306 49.7404 55.22 49.8163C55.1339 49.8922 55.0914 49.9962 55.0914 50.1281C55.0914 50.2951 55.1467 50.4437 55.2578 50.5728C55.3689 50.7018 55.5428 50.8604 55.7801 51.0478C55.7901 51.053 55.8634 51.1114 56 51.2224C56.2827 51.4555 56.4897 51.6624 56.6207 51.8418C56.7521 52.0216 56.8173 52.2432 56.8173 52.5066C56.8173 52.7297 56.7492 52.9309 56.6131 53.1108C56.477 53.2906 56.2912 53.4301 56.0567 53.5289C55.8218 53.6276 55.5655 53.6769 55.288 53.6769C54.9699 53.6769 54.7099 53.6133 54.508 53.4871C54.422 53.4415 54.3516 53.4088 54.2963 53.3884C54.2405 53.368 54.1852 53.358 54.1299 53.358C54.0339 53.358 53.9635 53.4467 53.9181 53.6242H53.7668C53.7867 53.3352 53.7971 52.8289 53.7971 52.1042H53.9483C53.9937 52.5199 54.1048 52.854 54.2816 53.1074C54.4584 53.3609 54.6801 53.4876 54.9477 53.4876C55.0739 53.4876 55.1784 53.452 55.262 53.3813C55.3452 53.3105 55.3868 53.2066 55.3868 53.0695C55.3868 52.9323 55.3575 52.8009 55.2999 52.6893C55.2417 52.5778 55.1713 52.4777 55.0881 52.3889C55.0049 52.3002 54.8697 52.1725 54.6829 52.005C54.4712 51.8076 54.3095 51.6505 54.1984 51.5338C54.0873 51.417 53.9928 51.2818 53.9143 51.1271C53.8358 50.9724 53.7971 50.8015 53.7971 50.6141C53.7971 50.3962 53.8628 50.2036 53.9937 50.0365C54.1251 49.8695 54.2991 49.7413 54.5161 49.6526C54.7331 49.5638 54.9675 49.5197 55.2204 49.5197C55.4176 49.5197 55.6029 49.5415 55.7768 49.5842V49.5852Z" fill="#040000"/>
        <path d="M61.573 52.7431C61.573 52.9762 61.6046 53.1461 61.6675 53.2524C61.7304 53.3587 61.8405 53.4118 61.997 53.4118V53.5713C61.8405 53.5561 61.6841 53.5485 61.5276 53.5485C61.0024 53.5485 60.5632 53.5841 60.2101 53.6548V53.1076C59.9832 53.4877 59.5818 53.6776 59.0061 53.6776C58.6023 53.6776 58.3168 53.576 58.1504 53.3734C58.0748 53.2823 58.019 53.1593 57.984 53.0046C57.9486 52.8499 57.9311 52.6463 57.9311 52.3929V50.4548C57.9311 50.2218 57.8994 50.0519 57.8365 49.9456C57.7732 49.8393 57.6635 49.7861 57.507 49.7861V49.6267C57.6635 49.6418 57.82 49.6494 57.9765 49.6494C58.5012 49.6494 58.9403 49.6138 59.294 49.5431V52.8039C59.294 52.9662 59.3228 53.0863 59.3809 53.165C59.4391 53.2438 59.5336 53.2827 59.665 53.2827C59.8116 53.2827 59.9387 53.231 60.0475 53.1271C60.1557 53.0231 60.2101 52.8926 60.2101 52.7356V50.4553C60.2101 50.2222 60.1784 50.0523 60.1156 49.946C60.0522 49.8397 59.9425 49.7866 59.7861 49.7866V49.6271C59.9425 49.6423 60.099 49.6499 60.2555 49.6499C60.7802 49.6499 61.2194 49.6143 61.573 49.5436V52.7436V52.7431Z" fill="#040000"/>
        <path d="M64.4348 52.864C64.4348 53.0718 64.4665 53.2152 64.5293 53.2935C64.5922 53.3722 64.7024 53.4111 64.8588 53.4111V53.5706C64.3138 53.5502 63.955 53.5402 63.7838 53.5402C63.6127 53.5402 63.2336 53.5507 62.6479 53.5706V53.4111C62.8043 53.4111 62.914 53.3718 62.9774 53.2935C63.0402 53.2152 63.0719 53.0718 63.0719 52.864V48.5388C63.0719 48.3058 63.0402 48.1359 62.9774 48.0296C62.914 47.9233 62.8043 47.8701 62.6479 47.8701V47.7106C62.8043 47.7258 62.9608 47.7334 63.1173 47.7334C63.642 47.7334 64.0812 47.6978 64.4348 47.6271V52.8644V52.864Z" fill="#040000"/>
        <path d="M67.2821 49.6267H68.0243V49.7785H67.2821V52.933C67.2821 53.0345 67.2996 53.1053 67.3351 53.1456C67.3705 53.1864 67.4282 53.2063 67.509 53.2063C67.5696 53.2063 67.6376 53.1888 67.7133 53.1532C67.7889 53.1176 67.857 53.0621 67.918 52.9861L68.0314 53.0773C67.7993 53.4778 67.441 53.6776 66.9564 53.6776C66.608 53.6776 66.348 53.5912 66.1764 53.4189C66.0705 53.3126 66.001 53.1807 65.9684 53.0236C65.9353 52.8666 65.9193 52.6463 65.9193 52.3626V49.7781H65.3439V49.6262H65.9193V48.7293C66.192 48.7293 66.4378 48.7027 66.6577 48.6495C66.8775 48.5964 67.0855 48.5114 67.2821 48.3947V49.6262V49.6267Z" fill="#040000"/>
        <path d="M70.3481 52.864C70.3481 53.0718 70.3798 53.2152 70.4427 53.2935C70.5056 53.3722 70.6157 53.4111 70.7722 53.4111V53.5706C70.2271 53.5502 69.8683 53.5402 69.6972 53.5402C69.5261 53.5402 69.1469 53.5507 68.5612 53.5706V53.4111C68.7177 53.4111 68.8274 53.3718 68.8907 53.2935C68.9536 53.2152 68.9853 53.0718 68.9853 52.864V50.4546C68.9853 50.2216 68.9536 50.0517 68.8907 49.9454C68.8274 49.8391 68.7177 49.7859 68.5612 49.7859V49.6265C68.7229 49.6417 68.8794 49.6492 69.0307 49.6492C69.5554 49.6492 69.9945 49.6137 70.3481 49.5429V52.8644V52.864ZM70.2309 47.7942C70.3746 47.9057 70.4469 48.068 70.4469 48.2806C70.4469 48.4932 70.3751 48.6555 70.2309 48.767C70.0872 48.8786 69.8839 48.9341 69.6216 48.9341C69.3592 48.9341 69.1493 48.8786 69.0084 48.767C68.8671 48.6555 68.7967 48.4932 68.7967 48.2806C68.7967 48.068 68.8671 47.9057 69.0084 47.7942C69.1498 47.6826 69.354 47.6271 69.6216 47.6271C69.8891 47.6271 70.0872 47.6831 70.2309 47.7942Z" fill="#040000"/>
        <path d="M75.2848 49.8234C75.3605 49.9145 75.4163 50.0375 75.4512 50.1922C75.4867 50.3469 75.5042 50.5509 75.5042 50.8039V52.864C75.5042 53.0718 75.5359 53.2152 75.5987 53.2935C75.6616 53.3722 75.7718 53.4111 75.9282 53.4111V53.5706C75.3832 53.5502 75.0296 53.5402 74.8684 53.5402C74.6968 53.5402 74.3384 53.5507 73.7934 53.5706V53.4111C73.9248 53.4111 74.0156 53.3718 74.0661 53.2935C74.1167 53.2152 74.1418 53.0718 74.1418 52.864V50.3934C74.1418 50.2311 74.1125 50.111 74.0548 50.0322C73.9967 49.9539 73.9021 49.9145 73.7707 49.9145C73.6241 49.9145 73.497 49.9667 73.3883 50.0702C73.2795 50.1741 73.2256 50.3046 73.2256 50.4617V52.8635C73.2256 53.0714 73.2507 53.2147 73.3013 53.293C73.3519 53.3718 73.4426 53.4107 73.574 53.4107V53.5701C73.0692 53.5497 72.7359 53.5398 72.5747 53.5398C72.4031 53.5398 72.0244 53.5502 71.4387 53.5701V53.4107C71.5952 53.4107 71.7049 53.3713 71.7682 53.293C71.8311 53.2147 71.8628 53.0714 71.8628 52.8635V50.4541C71.8628 50.2211 71.8311 50.0512 71.7682 49.9449C71.7049 49.8386 71.5952 49.7855 71.4387 49.7855V49.626C71.6004 49.6412 71.7569 49.6488 71.9081 49.6488C72.4329 49.6488 72.872 49.6132 73.2256 49.5425V50.0897C73.4525 49.7095 73.8539 49.5197 74.4297 49.5197C74.8334 49.5197 75.1189 49.6213 75.2853 49.8239L75.2848 49.8234Z" fill="#040000"/>
        <path d="M79.9833 50.2841C79.9048 50.2105 79.8661 50.108 79.8661 49.9761C79.8661 49.8546 79.9015 49.7227 79.972 49.5808C79.7498 49.6719 79.5857 49.8014 79.4799 49.9685C79.6666 50.1659 79.7602 50.4222 79.7602 50.7363C79.7602 51.1369 79.6127 51.4396 79.3172 51.6447C79.0218 51.8497 78.6271 51.9527 78.1321 51.9527C78.0361 51.9527 77.9657 51.9503 77.9203 51.9451C77.7889 52.0362 77.7237 52.1425 77.7237 52.2644C77.7237 52.4267 77.8144 52.5079 77.9964 52.5079H78.731C79.2458 52.5079 79.6486 52.5952 79.9389 52.7703C80.2291 52.945 80.3743 53.2174 80.3743 53.5875C80.3743 53.8509 80.2896 54.0892 80.1204 54.3022C79.9512 54.5148 79.6912 54.6847 79.3404 54.8114C78.9896 54.9382 78.5514 55.0013 78.0267 55.0013C77.502 55.0013 77.0978 54.9429 76.8 54.8266C76.5021 54.7099 76.3532 54.5452 76.3532 54.3326C76.3532 54.1855 76.4265 54.0512 76.5726 53.9297C76.7191 53.8082 76.9408 53.7119 77.2391 53.6407L77.3148 53.7622C77.1786 53.9292 77.1101 54.0915 77.1101 54.2486C77.1101 54.446 77.1994 54.5993 77.379 54.7085C77.5582 54.8171 77.8092 54.8717 78.1326 54.8717C78.4559 54.8717 78.7221 54.8043 78.9012 54.6705C79.0804 54.5362 79.1702 54.3578 79.1702 54.1347C79.1702 53.9776 79.1106 53.8523 78.9925 53.7584C78.8738 53.6644 78.6653 53.6179 78.368 53.6179H77.9591C77.6159 53.6179 77.3535 53.5519 77.1715 53.4205C76.99 53.2886 76.8988 53.1115 76.8988 52.8885C76.8988 52.6859 76.9706 52.5084 77.1143 52.3565C77.258 52.2046 77.4665 52.0628 77.7388 51.9308C77.3549 51.88 77.0533 51.7548 76.834 51.5545C76.6142 51.3542 76.5045 51.0818 76.5045 50.7373C76.5045 50.3372 76.652 50.034 76.9474 49.829C77.2429 49.6239 77.6376 49.521 78.1326 49.521C78.6625 49.521 79.0714 49.6325 79.3593 49.8555C79.4553 49.7236 79.5711 49.6197 79.7077 49.5437C79.8443 49.4678 79.988 49.4299 80.1393 49.4299C80.3057 49.4299 80.4348 49.4768 80.5255 49.5703C80.6163 49.6643 80.6617 49.7844 80.6617 49.9315C80.6617 50.0786 80.6239 50.1863 80.5482 50.2698C80.4726 50.3534 80.3766 50.3951 80.2603 50.3951C80.1544 50.3951 80.0623 50.3586 79.9838 50.285L79.9833 50.2841ZM78.3628 51.5687C78.4157 51.4041 78.4422 51.1269 78.4422 50.7363C78.4422 50.3458 78.4157 50.0686 78.3628 49.9039C78.3098 49.7393 78.2328 49.6567 78.1316 49.6567C78.0305 49.6567 77.9539 49.7393 77.9009 49.9039C77.848 50.0686 77.8215 50.3462 77.8215 50.7363C77.8215 51.1264 77.848 51.4041 77.9009 51.5687C77.9539 51.7334 78.0309 51.816 78.1316 51.816C78.2323 51.816 78.3094 51.7339 78.3628 51.5687Z" fill="#040000"/>
        <path d="M87.5053 49.4672C87.5053 49.7002 87.5128 49.8829 87.528 50.0143H87.354C87.233 49.4263 87.0472 49.0049 86.7976 48.7487C86.5475 48.4929 86.2686 48.3647 85.9609 48.3647H85.8625C85.7264 48.3647 85.6267 48.3761 85.5633 48.3989C85.5 48.4217 85.4574 48.4649 85.4347 48.528C85.412 48.5916 85.4007 48.6965 85.4007 48.8436V50.7893H85.4763C85.7387 50.7893 85.9632 50.6854 86.1504 50.4775C86.3372 50.2697 86.4558 50.0395 86.5064 49.7856H86.6804C86.6652 49.9982 86.6577 50.2364 86.6577 50.5003V50.8652C86.6577 51.1239 86.6728 51.4836 86.7031 51.9444H86.5291C86.4837 51.6554 86.3665 51.4162 86.1769 51.2259C85.9878 51.0361 85.7543 50.9407 85.4763 50.9407H85.4007V52.689C85.4007 52.9016 85.422 53.0563 85.465 53.1526C85.508 53.249 85.586 53.3135 85.6999 53.3463C85.8134 53.3795 85.994 53.3956 86.2412 53.3956V53.5703C85.5595 53.5551 85.0395 53.5475 84.6812 53.5475C84.4439 53.5475 84.1134 53.5527 83.6894 53.5627L83.3259 53.5703V53.4184C83.4876 53.4084 83.6048 53.388 83.6781 53.3577C83.7513 53.3273 83.8005 53.2689 83.8256 53.183C83.8506 53.0971 83.8634 52.9576 83.8634 52.7649V48.995C83.8634 48.8023 83.8497 48.6632 83.8218 48.5769C83.7939 48.491 83.7447 48.4326 83.6743 48.4022C83.6034 48.3719 83.4876 48.3514 83.3259 48.3415V48.1896C83.9116 48.2048 84.7946 48.2124 85.976 48.2124C86.7182 48.2124 87.2453 48.2048 87.5587 48.1896C87.5232 48.6661 87.5057 49.0918 87.5057 49.4667L87.5053 49.4672Z" fill="#040000"/>
        <path d="M91.5259 50.0099C91.8639 50.3369 92.0331 50.8675 92.0331 51.6026C92.0331 52.3377 91.8639 52.8668 91.5259 53.1914C91.1874 53.5156 90.7081 53.6779 90.0874 53.6779C89.4667 53.6779 88.9869 53.5156 88.6489 53.1914C88.3109 52.8673 88.1416 52.3377 88.1416 51.6026C88.1416 50.8675 88.3109 50.3369 88.6489 50.0099C88.9869 49.683 89.4667 49.5197 90.0874 49.5197C90.7081 49.5197 91.1879 49.683 91.5259 50.0099ZM89.7012 50.1504C89.6052 50.4698 89.5575 50.9538 89.5575 51.6021C89.5575 52.2504 89.6052 52.7335 89.7012 53.05C89.7971 53.3665 89.9257 53.525 90.0874 53.525C90.2491 53.525 90.3777 53.3665 90.4736 53.05C90.5696 52.7335 90.6173 52.2508 90.6173 51.6021C90.6173 50.9534 90.5691 50.4693 90.4736 50.1504C90.3777 49.831 90.2491 49.6716 90.0874 49.6716C89.9257 49.6716 89.7971 49.831 89.7012 50.1504Z" fill="#040000"/>
        <path d="M96.1029 49.7475C96.2111 49.8994 96.2655 50.0797 96.2655 50.2871C96.2655 50.5153 96.2012 50.6961 96.0726 50.8305C95.944 50.9648 95.7762 51.0317 95.5692 51.0317C95.3522 51.0317 95.1853 50.9823 95.0695 50.8836C94.9532 50.7849 94.8955 50.6515 94.8955 50.4845C94.8955 50.1855 95.0241 49.9501 95.2817 49.7774C95.191 49.7774 95.1101 49.7954 95.0392 49.8305C94.913 49.8865 94.8071 49.9762 94.7211 50.1006C94.635 50.2249 94.5925 50.3602 94.5925 50.5073V52.7876C94.5925 53.0258 94.6417 53.1891 94.74 53.2778C94.8383 53.3665 95.0061 53.4107 95.2435 53.4107V53.5701C95.1777 53.5701 95.1224 53.5678 95.0771 53.5625C94.5471 53.5474 94.1935 53.5398 94.0172 53.5398C93.8607 53.5398 93.51 53.5474 92.9649 53.5625C92.9242 53.5678 92.8713 53.5701 92.8061 53.5701V53.4107C92.9625 53.4107 93.0722 53.3713 93.1356 53.293C93.1984 53.2147 93.2301 53.0714 93.2301 52.8635V50.4541C93.2301 50.2211 93.1984 50.0512 93.1356 49.9449C93.0722 49.8386 92.9625 49.7855 92.8061 49.7855V49.626C92.9677 49.6412 93.1242 49.6488 93.2755 49.6488C93.8002 49.6488 94.2394 49.6132 94.593 49.5425V50.0897C94.7849 49.7095 95.1101 49.5197 95.5696 49.5197C95.8169 49.5197 95.9951 49.5956 96.1033 49.748L96.1029 49.7475Z" fill="#040000"/>
        <path d="M101.562 48.1624C101.741 48.2156 101.917 48.2905 102.088 48.3869C102.144 48.4172 102.193 48.4429 102.236 48.4628C102.279 48.4832 102.315 48.4932 102.345 48.4932C102.391 48.4932 102.426 48.4666 102.451 48.4134C102.476 48.3603 102.497 48.2753 102.512 48.1586H102.686C102.66 48.5235 102.648 49.1419 102.648 50.0132H102.474C102.454 49.7242 102.388 49.448 102.277 49.1846C102.166 48.9212 102.015 48.7058 101.823 48.5387C101.631 48.3717 101.409 48.2877 101.157 48.2877C100.925 48.2877 100.738 48.3499 100.597 48.4737C100.455 48.5981 100.384 48.7713 100.384 48.9943C100.384 49.1666 100.422 49.3161 100.498 49.4428C100.574 49.5695 100.685 49.6924 100.831 49.8115C100.978 49.9306 101.217 50.1067 101.551 50.3397C101.581 50.3549 101.61 50.3729 101.638 50.3929C101.665 50.4133 101.692 50.4337 101.717 50.4536C101.995 50.6463 102.217 50.8171 102.383 50.9666C102.55 51.1161 102.685 51.2898 102.788 51.4872C102.892 51.6846 102.943 51.9129 102.943 52.1715C102.943 52.5009 102.851 52.7785 102.667 53.0039C102.482 53.2294 102.234 53.3978 101.921 53.5094C101.608 53.6209 101.262 53.6764 100.884 53.6764C100.576 53.6764 100.32 53.6508 100.115 53.6005C99.9103 53.5497 99.7198 53.4814 99.5435 53.3955C99.4324 53.3247 99.3464 53.2892 99.2859 53.2892C99.2405 53.2892 99.205 53.3157 99.18 53.3689C99.1545 53.422 99.1346 53.507 99.1195 53.6237H98.9455C98.9654 53.2792 98.9758 52.5446 98.9758 51.4194H99.1497C99.1852 52.0225 99.3114 52.5113 99.5284 52.8862C99.7454 53.2612 100.079 53.4486 100.528 53.4486C100.805 53.4486 101.026 53.3826 101.19 53.2512C101.354 53.1193 101.436 52.937 101.436 52.704C101.436 52.415 101.346 52.1682 101.167 51.9627C100.988 51.7577 100.709 51.5285 100.331 51.2746C100.028 51.072 99.7855 50.8945 99.6035 50.7426C99.422 50.5908 99.2726 50.4147 99.1568 50.2144C99.0405 50.0142 98.9829 49.7826 98.9829 49.5187C98.9829 49.1993 99.0684 48.9322 99.2405 48.7167C99.4121 48.5012 99.6404 48.3418 99.9259 48.2379C100.211 48.1339 100.523 48.0822 100.861 48.0822C101.149 48.0822 101.382 48.1088 101.562 48.1619L101.562 48.1624Z" fill="#040000"/>
        <path d="M105.503 49.6267H106.245V49.7785H105.503V52.933C105.503 53.0345 105.52 53.1053 105.556 53.1456C105.591 53.1864 105.649 53.2063 105.73 53.2063C105.79 53.2063 105.858 53.1888 105.934 53.1532C106.01 53.1176 106.078 53.0621 106.139 52.9861L106.252 53.0773C106.02 53.4778 105.662 53.6776 105.177 53.6776C104.829 53.6776 104.569 53.5912 104.397 53.4189C104.291 53.3126 104.222 53.1807 104.189 53.0236C104.156 52.8666 104.14 52.6463 104.14 52.3626V49.7781H103.565V49.6262H104.14V48.7293C104.413 48.7293 104.659 48.7027 104.878 48.6495C105.098 48.5964 105.306 48.5114 105.503 48.3947V49.6262V49.6267Z" fill="#040000"/>
        <path d="M107.036 53.3623C106.872 53.1876 106.79 52.9684 106.79 52.705C106.79 52.4767 106.849 52.2883 106.967 52.1388C107.086 51.9894 107.226 51.874 107.388 51.7929C107.549 51.7117 107.759 51.6282 108.016 51.5418C108.289 51.4507 108.488 51.3672 108.614 51.2908C108.74 51.2149 108.803 51.1086 108.803 50.9714V50.2951C108.803 50.1328 108.762 49.9886 108.682 49.8619C108.601 49.7352 108.462 49.672 108.266 49.672C108.109 49.672 107.968 49.7152 107.842 49.8011C108.013 49.8619 108.141 49.952 108.224 50.0711C108.307 50.1903 108.349 50.3231 108.349 50.4703C108.349 50.6677 108.279 50.8262 108.141 50.9453C108.002 51.0644 107.834 51.1237 107.637 51.1237C107.441 51.1237 107.285 51.0616 107.172 50.9377C107.058 50.8134 107.002 50.6553 107.002 50.4627C107.002 50.3108 107.039 50.1789 107.115 50.0674C107.191 49.9558 107.309 49.8547 107.471 49.7632C107.754 49.6009 108.157 49.5197 108.683 49.5197C108.96 49.5197 109.2 49.5463 109.402 49.5994C109.604 49.6526 109.775 49.7527 109.917 49.8998C110.018 50.0061 110.085 50.1395 110.117 50.2989C110.15 50.4584 110.166 50.6805 110.166 50.9638V53.0011C110.166 53.1278 110.175 53.2137 110.193 53.2598C110.21 53.3053 110.242 53.3281 110.287 53.3281C110.323 53.3281 110.361 53.3167 110.401 53.2939C110.441 53.2712 110.479 53.2446 110.514 53.2142L110.59 53.3433C110.373 53.5307 110.062 53.6247 109.659 53.6247C109.356 53.6247 109.144 53.5725 109.022 53.4691C108.901 53.3651 108.836 53.2247 108.826 53.0472C108.588 53.4325 108.235 53.6247 107.766 53.6247C107.443 53.6247 107.199 53.5374 107.035 53.3623H107.036ZM108.804 52.8872V51.2832C108.759 51.3591 108.675 51.4578 108.554 51.5798C108.418 51.7117 108.314 51.8394 108.243 51.9637C108.172 52.0881 108.137 52.2565 108.137 52.4691C108.137 52.8341 108.266 53.0163 108.524 53.0163C108.63 53.0163 108.723 52.9731 108.804 52.8872Z" fill="#040000"/>
        <path d="M114.479 49.7475C114.587 49.8994 114.642 50.0797 114.642 50.2871C114.642 50.5153 114.578 50.6961 114.449 50.8305C114.32 50.9648 114.153 51.0317 113.946 51.0317C113.729 51.0317 113.562 50.9823 113.446 50.8836C113.33 50.7849 113.272 50.6515 113.272 50.4845C113.272 50.1855 113.4 49.9501 113.658 49.7774C113.567 49.7774 113.487 49.7954 113.416 49.8305C113.289 49.8865 113.183 49.9762 113.097 50.1006C113.011 50.2249 112.969 50.3602 112.969 50.5073V52.7876C112.969 53.0258 113.018 53.1891 113.116 53.2778C113.215 53.3665 113.383 53.4107 113.62 53.4107V53.5701C113.554 53.5701 113.499 53.5678 113.453 53.5625C112.923 53.5474 112.57 53.5398 112.394 53.5398C112.237 53.5398 111.886 53.5474 111.341 53.5625C111.301 53.5678 111.248 53.5701 111.182 53.5701V53.4107C111.339 53.4107 111.449 53.3713 111.512 53.293C111.575 53.2147 111.606 53.0714 111.606 52.8635V50.4541C111.606 50.2211 111.575 50.0512 111.512 49.9449C111.449 49.8386 111.339 49.7855 111.182 49.7855V49.626C111.344 49.6412 111.501 49.6488 111.652 49.6488C112.177 49.6488 112.616 49.6132 112.969 49.5425V50.0897C113.161 49.7095 113.487 49.5197 113.946 49.5197C114.193 49.5197 114.371 49.5956 114.48 49.748L114.479 49.7475Z" fill="#040000"/>
        <path d="M116.951 49.6267H117.693V49.7785H116.951V52.933C116.951 53.0345 116.969 53.1053 117.004 53.1456C117.039 53.1864 117.097 53.2063 117.178 53.2063C117.239 53.2063 117.307 53.1888 117.382 53.1532C117.458 53.1176 117.526 53.0621 117.587 52.9861L117.7 53.0773C117.468 53.4778 117.11 53.6776 116.625 53.6776C116.277 53.6776 116.017 53.5912 115.845 53.4189C115.739 53.3126 115.67 53.1807 115.637 53.0236C115.604 52.8666 115.588 52.6463 115.588 52.3626V49.7781H115.013V49.6262H115.588V48.7293C115.861 48.7293 116.107 48.7027 116.327 48.6495C116.546 48.5964 116.754 48.5114 116.951 48.3947V49.6262V49.6267Z" fill="#040000"/>
        <path d="M122.221 52.7431C122.221 52.9762 122.253 53.1461 122.315 53.2524C122.378 53.3587 122.488 53.4118 122.645 53.4118V53.5713C122.488 53.5561 122.332 53.5485 122.176 53.5485C121.65 53.5485 121.211 53.5841 120.858 53.6548V53.1076C120.631 53.4877 120.23 53.6776 119.654 53.6776C119.25 53.6776 118.965 53.576 118.798 53.3734C118.723 53.2823 118.667 53.1593 118.632 53.0046C118.597 52.8499 118.579 52.6463 118.579 52.3929V50.4548C118.579 50.2218 118.547 50.0519 118.484 49.9456C118.421 49.8393 118.311 49.7861 118.155 49.7861V49.6267C118.311 49.6418 118.468 49.6494 118.624 49.6494C119.149 49.6494 119.588 49.6138 119.942 49.5431V52.8039C119.942 52.9662 119.971 53.0863 120.029 53.165C120.087 53.2438 120.182 53.2827 120.313 53.2827C120.46 53.2827 120.587 53.231 120.695 53.1271C120.804 53.0231 120.858 52.8926 120.858 52.7356V50.4553C120.858 50.2222 120.826 50.0523 120.764 49.946C120.7 49.8397 120.59 49.7866 120.434 49.7866V49.6271C120.59 49.6423 120.747 49.6499 120.903 49.6499C121.428 49.6499 121.867 49.6143 122.221 49.5436V52.7436V52.7431Z" fill="#040000"/>
        <path d="M127.188 50.0057C127.431 50.3298 127.552 50.8039 127.552 51.427C127.552 52.2328 127.39 52.8094 127.067 53.1563C126.744 53.5037 126.317 53.6769 125.787 53.6769C125.495 53.6769 125.26 53.6285 125.083 53.5326V54.1633C125.083 54.3964 125.137 54.5587 125.246 54.6498C125.354 54.7409 125.517 54.7864 125.734 54.7864V54.9459L125.514 54.9383C124.909 54.9231 124.517 54.9155 124.34 54.9155C124.189 54.9155 123.841 54.9255 123.296 54.9459V54.7864C123.452 54.7864 123.562 54.7471 123.625 54.6688C123.688 54.59 123.72 54.4471 123.72 54.2393V50.4617C123.72 50.2287 123.688 50.0588 123.625 49.9525C123.562 49.8462 123.452 49.7931 123.296 49.7931V49.6336C123.452 49.6488 123.609 49.6564 123.765 49.6564C124.29 49.6564 124.729 49.6208 125.083 49.5501V50.0897C125.315 49.7095 125.698 49.5197 126.234 49.5197C126.627 49.5197 126.946 49.682 127.188 50.0061L127.188 50.0057ZM125.95 52.9969C126.074 52.6955 126.135 52.2304 126.135 51.6021C126.135 50.9738 126.09 50.5419 125.999 50.2909C125.908 50.0398 125.785 49.9145 125.628 49.9145C125.482 49.9145 125.354 49.9667 125.246 50.0702C125.137 50.1741 125.083 50.3046 125.083 50.4617V53.3884C125.149 53.4292 125.237 53.4491 125.348 53.4491C125.626 53.4491 125.827 53.2982 125.95 52.9969Z" fill="#040000"/>
        <path d="M130.478 49.5852C130.652 49.6284 130.785 49.6754 130.876 49.7257C130.931 49.756 130.976 49.7712 131.012 49.7712C131.118 49.7712 131.181 49.6901 131.201 49.5278H131.352C131.332 49.7912 131.322 50.2472 131.322 50.8959H131.171C131.13 50.5614 131.035 50.279 130.886 50.0484C130.738 49.8177 130.521 49.7024 130.239 49.7024C130.113 49.7024 130.007 49.7404 129.921 49.8163C129.835 49.8922 129.793 49.9962 129.793 50.1281C129.793 50.2951 129.848 50.4437 129.959 50.5728C130.07 50.7018 130.244 50.8604 130.481 51.0478C130.491 51.053 130.565 51.1114 130.701 51.2224C130.984 51.4555 131.191 51.6624 131.322 51.8418C131.453 52.0216 131.518 52.2432 131.518 52.5066C131.518 52.7297 131.45 52.9309 131.314 53.1108C131.178 53.2906 130.992 53.4301 130.758 53.5289C130.523 53.6276 130.267 53.6769 129.989 53.6769C129.671 53.6769 129.411 53.6133 129.209 53.4871C129.123 53.4415 129.053 53.4088 128.997 53.3884C128.942 53.368 128.886 53.358 128.831 53.358C128.735 53.358 128.665 53.4467 128.619 53.6242H128.468C128.488 53.3352 128.498 52.8289 128.498 52.1042H128.649C128.695 52.5199 128.806 52.854 128.983 53.1074C129.16 53.3609 129.381 53.4876 129.649 53.4876C129.775 53.4876 129.88 53.452 129.963 53.3813C130.046 53.3105 130.088 53.2066 130.088 53.0695C130.088 52.9323 130.059 52.8009 130.001 52.6893C129.943 52.5778 129.872 52.4777 129.789 52.3889C129.706 52.3002 129.571 52.1725 129.384 52.005C129.172 51.8076 129.011 51.6505 128.9 51.5338C128.788 51.417 128.694 51.2818 128.615 51.1271C128.537 50.9724 128.498 50.8015 128.498 50.6141C128.498 50.3962 128.564 50.2036 128.695 50.0365C128.826 49.8695 129 49.7413 129.217 49.6526C129.434 49.5638 129.669 49.5197 129.922 49.5197C130.119 49.5197 130.304 49.5415 130.478 49.5842V49.5852Z" fill="#040000"/>
    </g>
    <defs>
        <clipPath id="clip0_1_6">
            <rect width="132" height="55" fill="white"/>
        </clipPath>
    </defs>
</svg>
